M48
;Layer_Color=9474304
;FILE_FORMAT=2:5
INCH,LZ
;TYPE=PLATED
T1F00S00C0.01500
T2F00S00C0.02756
T3F00S00C0.02800
T4F00S00C0.02953
T5F00S00C0.02984
T6F00S00C0.03087
T7F00S00C0.03110
T8F00S00C0.03150
T9F00S00C0.03189
T10F00S00C0.03386
T11F00S00C0.03740
T12F00S00C0.04331
T13F00S00C0.04528
T14F00S00C0.04724
T15F00S00C0.05000
T16F00S00C0.05039
T17F00S00C0.05118
T18F00S00C0.06142
T19F00S00C0.12913
%
T01
X0204752Y0377
X03935Y04523
X04319Y04655
X0441622Y0465752
X0493248Y0438
X0524752Y04388
X05189Y04294
X0539Y04606
X0546552Y0458752
X05571Y04575
X05641Y0461
X05798Y0458752
X05807Y04549
X05979Y0462
X08324Y04604
X08439Y043
X08681Y048
X0871Y0505
X0885689Y0562752
X08917
X0885689Y0596
X0864226Y0590226
X07287Y05625
X0724132Y0502
X07178Y04716
X06567Y05821
X0556248Y0540752
X057Y04939
X0575Y04792
X05846Y04698
X03729Y05506
X02759Y05671
T02
X0386Y0498
Y0547606
T03
X0074Y035
X078Y0352
X0828
X0992Y0354
Y062
X0828Y0622
X0074Y0618
X0788Y0928
T04
X0718Y0413937
Y046
T05
X0374626Y0445
Y0455
Y0465
X0405374
Y0455
Y0445
Y0475
X0374626
T06
X0611626Y0387
Y0397
Y0407
Y0417
Y0427
Y0437
Y0447
Y0457
Y0467
X0672374
Y0457
Y0447
Y0437
Y0427
Y0417
Y0407
Y0397
Y0387
Y0477
Y0487
Y0497
Y0507
Y0517
Y0527
Y0537
Y0547
Y0557
Y0567
Y0577
X0611626
Y0567
Y0557
Y0547
Y0537
Y0527
Y0517
Y0507
Y0497
Y0487
Y0477
T07
X0888685Y0435
Y0445
Y0455
Y0465
X0919315
Y0455
Y0445
Y0435
Y0475
Y0485
Y0495
Y0505
Y0515
Y0525
X0888685
Y0515
Y0505
Y0495
Y0485
Y0475
T08
X047689Y0534
X0508Y054
X0515874
X0515937Y051
X0508063
X046311Y0534
X043Y054
X0422126
T09
X0341Y0597346
X0346Y0594
X0351Y0597346
T10
X017Y04
X0175Y0396063
X018Y04
X0398Y0572
X0403Y0568063
X0408Y0572
X0407Y0601937
X0402Y0598
X0397Y0601937
T11
X0952Y0448
Y0458
Y0468
X0992
Y0458
Y0448
Y0478
Y0488
Y0498
Y0508
Y0518
X0952
Y0508
Y0498
Y0488
Y0478
T12
X0290315Y0444
X0329685
X0844Y0468
X0854
Y0478
Y0488
Y0498
Y0508
X0844
Y0498
Y0488
Y0478
X0744Y0588
Y0598
X0734
Y0588
X0724
Y0598
X0714
Y0588
X0704
Y0598
T13
X0486Y0388
X0496
X0506
X0516
X0526
X0554
X0564
X0574
X0584
X0754Y0386
Y0396
Y0376
Y0418
X0744
Y0428
X0754
Y0438
X0744
X0754Y0458
Y0468
Y049
Y05
Y051
Y0534
Y0544
Y0554
T14
X0836157Y0378472
X0846
X0855843
Y0435559
X0836157
T15
X0482Y059
Y06
X0512
Y059
T16
X0452Y0578
Y0588
Y0598
T17
X0106Y0378
Y0398
X0150472Y0441921
X018
X0428Y0404
X0448
X0556Y0586
X0576
X018Y0541685
Y0521843
Y0502
X0150472
Y0521843
Y0541685
X0112Y0572
Y0592
T18
X0232Y0390945
Y0420472
Y045
Y0479528
X023Y0514945
Y0544472
Y0574
Y0603528
T19
X0823953Y0408
X0868047
M30
