G04*
G04 #@! TF.GenerationSoftware,Altium Limited,Altium Designer,22.4.2 (48)*
G04*
G04 Layer_Color=8421504*
%FSLAX25Y25*%
%MOIN*%
G70*
G04*
G04 #@! TF.SameCoordinates,EFB2AD4A-E9B5-4B68-97B7-9E8596F90355*
G04*
G04*
G04 #@! TF.FilePolarity,Positive*
G04*
G01*
G75*
%ADD16R,0.03347X0.05315*%
%ADD17R,0.05315X0.03347*%
%ADD18R,0.05787X0.04016*%
%ADD19R,0.04016X0.05787*%
%ADD20R,0.05118X0.10630*%
%ADD21R,0.13386X0.03937*%
%ADD22R,0.33858X0.42126*%
%ADD23R,0.08465X0.09055*%
D16*
X287248Y594000D02*
D03*
X280752D02*
D03*
X724752Y532000D02*
D03*
X731248D02*
D03*
X569248Y444000D02*
D03*
X562752D02*
D03*
X513248D02*
D03*
X506752D02*
D03*
X493248D02*
D03*
X486752D02*
D03*
X589248D02*
D03*
X582752D02*
D03*
X549248D02*
D03*
X542752D02*
D03*
X531248D02*
D03*
X524752D02*
D03*
X204752Y388000D02*
D03*
X211248D02*
D03*
X304752Y594000D02*
D03*
X311248D02*
D03*
D17*
X898000Y569248D02*
D03*
Y562752D02*
D03*
X876000Y569248D02*
D03*
Y562752D02*
D03*
X852000Y569248D02*
D03*
Y562752D02*
D03*
X732000Y502752D02*
D03*
Y509248D02*
D03*
X718000Y482752D02*
D03*
Y489248D02*
D03*
Y502000D02*
D03*
Y508496D02*
D03*
X570000Y465248D02*
D03*
Y458752D02*
D03*
X516000Y465248D02*
D03*
Y458752D02*
D03*
X552000Y465248D02*
D03*
Y458752D02*
D03*
X534000Y465248D02*
D03*
Y458752D02*
D03*
X588000Y465248D02*
D03*
Y458752D02*
D03*
X550000Y538752D02*
D03*
Y545248D02*
D03*
X580000Y538752D02*
D03*
Y545248D02*
D03*
X562000Y540752D02*
D03*
Y547248D02*
D03*
X208000Y400752D02*
D03*
Y407248D02*
D03*
D18*
X896000Y584811D02*
D03*
Y591189D02*
D03*
X876000Y584811D02*
D03*
Y591189D02*
D03*
X852000Y584811D02*
D03*
Y591189D02*
D03*
D19*
X731189Y546000D02*
D03*
X724811D02*
D03*
X441622Y485840D02*
D03*
X448000D02*
D03*
X422000Y500000D02*
D03*
X428378D02*
D03*
X440811Y499840D02*
D03*
X447189D02*
D03*
X546000Y512000D02*
D03*
X552378D02*
D03*
X586000D02*
D03*
X592378D02*
D03*
X568000D02*
D03*
X574378D02*
D03*
X422811Y485840D02*
D03*
X429189D02*
D03*
X586000Y496000D02*
D03*
X592378D02*
D03*
D20*
X557512Y494000D02*
D03*
X546488D02*
D03*
D21*
X283445Y556000D02*
D03*
Y546000D02*
D03*
Y536000D02*
D03*
D22*
X325177Y546000D02*
D03*
D23*
X108000Y506000D02*
D03*
Y488677D02*
D03*
M02*
