G04*
G04 #@! TF.GenerationSoftware,Altium Limited,Altium Designer,22.4.2 (48)*
G04*
G04 Layer_Physical_Order=2*
G04 Layer_Color=16711680*
%FSLAX25Y25*%
%MOIN*%
G70*
G04*
G04 #@! TF.SameCoordinates,EFB2AD4A-E9B5-4B68-97B7-9E8596F90355*
G04*
G04*
G04 #@! TF.FilePolarity,Positive*
G04*
G01*
G75*
%ADD57R,0.07874X0.07874*%
%ADD58C,0.07874*%
%ADD70C,0.02500*%
%ADD72C,0.06496*%
%ADD73R,0.06496X0.06496*%
%ADD74C,0.05512*%
%ADD75C,0.18898*%
%ADD76C,0.07087*%
%ADD77C,0.07677*%
%ADD78R,0.07677X0.07677*%
%ADD79R,0.04685X0.04685*%
%ADD80C,0.04685*%
%ADD81C,0.05610*%
%ADD82R,0.05610X0.05610*%
%ADD83R,0.06496X0.06496*%
%ADD84R,0.06791X0.06791*%
%ADD85C,0.06791*%
%ADD86R,0.06791X0.06791*%
%ADD87C,0.04661*%
%ADD88R,0.04661X0.04661*%
%ADD89C,0.04528*%
%ADD90R,0.04528X0.04528*%
G04:AMPARAMS|DCode=91|XSize=51.18mil|YSize=51.18mil|CornerRadius=12.8mil|HoleSize=0mil|Usage=FLASHONLY|Rotation=0.000|XOffset=0mil|YOffset=0mil|HoleType=Round|Shape=RoundedRectangle|*
%AMROUNDEDRECTD91*
21,1,0.05118,0.02559,0,0,0.0*
21,1,0.02559,0.05118,0,0,0.0*
1,1,0.02559,0.01280,-0.01280*
1,1,0.02559,-0.01280,-0.01280*
1,1,0.02559,-0.01280,0.01280*
1,1,0.02559,0.01280,0.01280*
%
%ADD91ROUNDEDRECTD91*%
%ADD92C,0.05118*%
%ADD93R,0.07677X0.07677*%
G04:AMPARAMS|DCode=94|XSize=64.96mil|YSize=64.96mil|CornerRadius=16.24mil|HoleSize=0mil|Usage=FLASHONLY|Rotation=0.000|XOffset=0mil|YOffset=0mil|HoleType=Round|Shape=RoundedRectangle|*
%AMROUNDEDRECTD94*
21,1,0.06496,0.03248,0,0,0.0*
21,1,0.03248,0.06496,0,0,0.0*
1,1,0.03248,0.01624,-0.01624*
1,1,0.03248,-0.01624,-0.01624*
1,1,0.03248,-0.01624,0.01624*
1,1,0.03248,0.01624,0.01624*
%
%ADD94ROUNDEDRECTD94*%
%ADD95C,0.04559*%
%ADD96R,0.04559X0.04559*%
%ADD97C,0.05315*%
%ADD98R,0.07559X0.07559*%
%ADD99C,0.07559*%
%ADD100C,0.07500*%
%ADD101C,0.04331*%
%ADD102R,0.04331X0.04331*%
%ADD103R,0.09213X0.09213*%
%ADD104C,0.09213*%
%ADD105C,0.02500*%
%ADD106C,0.17047*%
%ADD107C,0.16929*%
G36*
X755956Y617500D02*
X764406Y609050D01*
Y606543D01*
X763944Y606352D01*
X753246Y617050D01*
X753439Y617511D01*
X755956Y617500D01*
D02*
G37*
G36*
X477436Y601320D02*
X477250Y600625D01*
Y600500D01*
X482000D01*
Y600000D01*
X482500D01*
Y595250D01*
X482625D01*
X483833Y595574D01*
X484917Y596199D01*
X485801Y597083D01*
X486426Y598167D01*
X486750Y599375D01*
Y599852D01*
X487212Y600044D01*
X539978Y547278D01*
X540722Y546781D01*
X541600Y546606D01*
X543103D01*
X543339Y546165D01*
X543281Y546078D01*
X543106Y545200D01*
X543281Y544322D01*
X543778Y543578D01*
X583019Y504337D01*
X582828Y503875D01*
X580869D01*
X521122Y563622D01*
X520378Y564119D01*
X519500Y564294D01*
X404984D01*
X404850Y564794D01*
X405306Y565058D01*
X406005Y565757D01*
X406500Y566613D01*
X406756Y567568D01*
Y568034D01*
X407153Y568339D01*
X407506Y568244D01*
X408495D01*
X409450Y568500D01*
X410306Y568995D01*
X411005Y569694D01*
X411500Y570550D01*
X411756Y571505D01*
Y572495D01*
X411500Y573450D01*
X411005Y574306D01*
X410306Y575005D01*
X409450Y575500D01*
X408495Y575756D01*
X407506D01*
X406550Y575500D01*
X405694Y575005D01*
X404994Y574306D01*
X404500Y573450D01*
X404244Y572495D01*
Y572029D01*
X403847Y571724D01*
X403495Y571819D01*
X402505D01*
X402153Y571724D01*
X401756Y572029D01*
Y572495D01*
X401752Y572508D01*
X414950Y585706D01*
X447806D01*
X448175Y585065D01*
X449065Y584175D01*
X450155Y583546D01*
X451150Y583280D01*
X451085Y582780D01*
X447221D01*
Y573220D01*
X456779D01*
Y582780D01*
X452915D01*
X452850Y583280D01*
X453845Y583546D01*
X454935Y584175D01*
X455825Y585065D01*
X456454Y586155D01*
X456779Y587371D01*
Y588629D01*
X456545Y589503D01*
X456994Y589762D01*
X458378Y588378D01*
X459122Y587881D01*
X460000Y587706D01*
X477840D01*
X478199Y587083D01*
X479083Y586199D01*
X480167Y585574D01*
X481375Y585250D01*
X482625D01*
X483833Y585574D01*
X484917Y586199D01*
X485801Y587083D01*
X486426Y588167D01*
X486750Y589375D01*
Y590625D01*
X486426Y591833D01*
X485801Y592917D01*
X484917Y593801D01*
X483833Y594426D01*
X482625Y594750D01*
X481375D01*
X480167Y594426D01*
X479083Y593801D01*
X478199Y592917D01*
X477840Y592294D01*
X460950D01*
X456588Y596656D01*
X456779Y597371D01*
Y598629D01*
X456454Y599845D01*
X455825Y600935D01*
X454935Y601825D01*
X453845Y602454D01*
X452629Y602779D01*
X451371D01*
X450155Y602454D01*
X449065Y601825D01*
X448175Y600935D01*
X447546Y599845D01*
X447221Y598629D01*
Y597371D01*
X447546Y596155D01*
X448175Y595065D01*
X449065Y594175D01*
X450155Y593546D01*
X451228Y593259D01*
Y592741D01*
X450155Y592454D01*
X449065Y591825D01*
X448175Y590935D01*
X447806Y590294D01*
X414000D01*
X413122Y590120D01*
X412378Y589622D01*
X398508Y575752D01*
X398495Y575756D01*
X397505D01*
X396550Y575500D01*
X395694Y575005D01*
X395656Y574968D01*
X395194Y575159D01*
Y587950D01*
X401492Y594248D01*
X401506Y594244D01*
X402494D01*
X403450Y594500D01*
X404306Y594994D01*
X405006Y595694D01*
X405500Y596550D01*
X405756Y597506D01*
Y597971D01*
X406153Y598276D01*
X406500Y598183D01*
Y601937D01*
X407000D01*
Y602437D01*
X410754D01*
X410752Y602445D01*
X412213Y603906D01*
X474850D01*
X477436Y601320D01*
D02*
G37*
G36*
X693668Y578258D02*
X693476Y577796D01*
X683438D01*
X682612Y578622D01*
X681868Y579119D01*
X680990Y579294D01*
X675216D01*
X675162Y579376D01*
X675429Y579876D01*
X692050D01*
X693668Y578258D01*
D02*
G37*
G36*
X406828Y544978D02*
X407572Y544481D01*
X408450Y544306D01*
X422417D01*
X422676Y543982D01*
X422423Y543559D01*
X421657D01*
X420752Y543317D01*
X419941Y542848D01*
X419387Y542294D01*
X394557D01*
X389165Y547685D01*
Y548023D01*
X388950Y548828D01*
X388533Y549550D01*
X387944Y550139D01*
X387222Y550556D01*
X386417Y550772D01*
X386079D01*
X381129Y555722D01*
X380384Y556219D01*
X379506Y556394D01*
X370192D01*
X370000Y556856D01*
X372150Y559006D01*
X392800D01*
X406828Y544978D01*
D02*
G37*
G36*
X577500Y500756D02*
X577308Y500294D01*
X389165D01*
Y501165D01*
X386079D01*
X375194Y512050D01*
Y550600D01*
X375150Y550822D01*
Y551048D01*
X375063Y551256D01*
X375054Y551306D01*
X375307Y551724D01*
X375402Y551806D01*
X378556D01*
X382835Y547527D01*
Y547190D01*
X383050Y546385D01*
X383467Y545663D01*
X384056Y545074D01*
X384778Y544657D01*
X385583Y544441D01*
X385921D01*
X391984Y538378D01*
X392728Y537881D01*
X393606Y537706D01*
X419387D01*
X419941Y537152D01*
X420752Y536684D01*
X421626Y536449D01*
Y540000D01*
X422626D01*
Y536256D01*
X426504Y532378D01*
X427248Y531881D01*
X428126Y531706D01*
X460371D01*
X460925Y531152D01*
X461736Y530684D01*
X462610Y530449D01*
Y534000D01*
Y537551D01*
X461736Y537317D01*
X460925Y536848D01*
X460371Y536294D01*
X432651D01*
X432500Y536794D01*
X432923Y537077D01*
X433427Y537831D01*
X433604Y538721D01*
Y540359D01*
X435850Y542606D01*
X468085D01*
X468219Y542143D01*
X468212Y542106D01*
X467488Y541622D01*
X463610Y537744D01*
Y534500D01*
X466854D01*
X470060Y537706D01*
X474239D01*
X474390Y537206D01*
X473967Y536923D01*
X473463Y536169D01*
X473286Y535280D01*
Y532721D01*
X473463Y531831D01*
X473967Y531077D01*
X474721Y530573D01*
X475610Y530396D01*
X478169D01*
X479059Y530573D01*
X479813Y531077D01*
X480317Y531831D01*
X480493Y532721D01*
Y535280D01*
X480317Y536169D01*
X479813Y536923D01*
X479389Y537206D01*
X479541Y537706D01*
X505261D01*
X505815Y537152D01*
X506626Y536684D01*
X507500Y536449D01*
Y540000D01*
X508500D01*
Y536449D01*
X509374Y536684D01*
X510185Y537152D01*
X510848Y537815D01*
X511316Y538626D01*
X511559Y539531D01*
Y540148D01*
X512039Y540413D01*
X512270Y540239D01*
Y538721D01*
X512447Y537831D01*
X512951Y537077D01*
X513705Y536573D01*
X514595Y536396D01*
X517154D01*
X518043Y536573D01*
X518797Y537077D01*
X519301Y537831D01*
X519478Y538721D01*
Y541280D01*
X519301Y542169D01*
X518797Y542923D01*
X518043Y543427D01*
X517154Y543604D01*
X515515D01*
X512596Y546522D01*
X511852Y547019D01*
X510974Y547194D01*
X434900D01*
X434022Y547019D01*
X433278Y546522D01*
X430359Y543604D01*
X429641D01*
X425022Y548222D01*
X424278Y548719D01*
X423400Y548894D01*
X409400D01*
X399089Y559206D01*
X399296Y559706D01*
X518550D01*
X577500Y500756D01*
D02*
G37*
G36*
X757176Y513980D02*
X757146Y513777D01*
X756932Y513653D01*
X756611Y513568D01*
X755697Y514096D01*
X754579Y514396D01*
X754500D01*
Y510000D01*
Y505604D01*
X754579D01*
X755697Y505904D01*
X756302Y506253D01*
X756609Y505853D01*
X755030Y504275D01*
X754579Y504396D01*
X753421D01*
X752303Y504096D01*
X751301Y503517D01*
X750483Y502699D01*
X750249Y502294D01*
X727082D01*
X725754Y503622D01*
X725566Y503748D01*
X725406Y503907D01*
X725197Y503994D01*
X725009Y504119D01*
X724788Y504164D01*
X724579Y504250D01*
X724353D01*
X724132Y504294D01*
X723910Y504250D01*
X723684D01*
X723475Y504164D01*
X723254Y504119D01*
X723066Y503994D01*
X722857Y503907D01*
X722697Y503748D01*
X722509Y503622D01*
X722384Y503434D01*
X722224Y503274D01*
X722138Y503066D01*
X722012Y502878D01*
X721968Y502656D01*
X721882Y502448D01*
Y502222D01*
X721838Y502000D01*
X721882Y501778D01*
Y501552D01*
X721968Y501344D01*
X722012Y501122D01*
X722138Y500934D01*
X722224Y500726D01*
X722384Y500566D01*
X722509Y500378D01*
X724509Y498378D01*
X725254Y497881D01*
X726132Y497706D01*
X750249D01*
X750483Y497301D01*
X751301Y496483D01*
X752303Y495904D01*
X753421Y495604D01*
X754579D01*
X755697Y495904D01*
X756302Y496253D01*
X756609Y495853D01*
X755151Y494396D01*
X749604D01*
Y486594D01*
X743850D01*
X736403Y494041D01*
X735659Y494539D01*
X734781Y494713D01*
X682611D01*
X682459Y495213D01*
X682705Y495378D01*
X695033Y507706D01*
X750249D01*
X750483Y507301D01*
X751301Y506483D01*
X752303Y505904D01*
X753421Y505604D01*
X753500D01*
Y510000D01*
Y514396D01*
X753421D01*
X752303Y514096D01*
X751301Y513517D01*
X750483Y512699D01*
X750249Y512294D01*
X694083D01*
X693205Y512119D01*
X692461Y511622D01*
X680133Y499294D01*
X674790D01*
X674447Y499637D01*
X674442Y499735D01*
X674442Y499741D01*
X674570Y500155D01*
X675297Y500300D01*
X676041Y500797D01*
X690250Y515006D01*
X756150D01*
X757176Y513980D01*
D02*
G37*
G36*
X738800Y485156D02*
X738608Y484694D01*
X675458D01*
X675177Y485194D01*
X675478Y485714D01*
X675705Y486561D01*
Y487438D01*
X675478Y488286D01*
X675039Y489045D01*
X674459Y489625D01*
X674479Y489801D01*
X674622Y490125D01*
X733831D01*
X738800Y485156D01*
D02*
G37*
G36*
X608295Y477086D02*
Y476561D01*
X608522Y475714D01*
X608823Y475194D01*
X608542Y474694D01*
X607050D01*
X600922Y480822D01*
X600178Y481319D01*
X599300Y481494D01*
X575000D01*
X574778Y481450D01*
X574552D01*
X574344Y481363D01*
X574122Y481319D01*
X573934Y481194D01*
X573726Y481108D01*
X573566Y480948D01*
X573378Y480822D01*
X573252Y480634D01*
X573093Y480475D01*
X573006Y480266D01*
X572881Y480078D01*
X572836Y479856D01*
X572794Y479754D01*
X572294Y479853D01*
Y493900D01*
X572250Y494122D01*
Y494347D01*
X572163Y494556D01*
X572119Y494778D01*
X571994Y494966D01*
X571908Y495175D01*
X571876Y495206D01*
X572031Y495632D01*
X572101Y495706D01*
X589676D01*
X608295Y477086D01*
D02*
G37*
G36*
X641424Y480778D02*
X642168Y480281D01*
X643046Y480106D01*
X670092D01*
X670228Y479853D01*
X670270Y479606D01*
X669709Y479045D01*
X669270Y478286D01*
X669043Y477438D01*
Y476561D01*
X669270Y475714D01*
X669709Y474955D01*
X670270Y474394D01*
X670228Y474147D01*
X670092Y473894D01*
X647231D01*
X617922Y503203D01*
X617178Y503700D01*
X616300Y503875D01*
X613874D01*
X613731Y504199D01*
X613715Y504342D01*
X614056Y504706D01*
X617496D01*
X641424Y480778D01*
D02*
G37*
G36*
X370305Y551478D02*
X370650Y551048D01*
Y550822D01*
X370606Y550600D01*
Y511100D01*
X370780Y510222D01*
X371278Y509478D01*
X382835Y497921D01*
Y494835D01*
X389165D01*
Y495706D01*
X567899D01*
X567969Y495632D01*
X568124Y495206D01*
X568092Y495175D01*
X568006Y494966D01*
X567881Y494778D01*
X567837Y494556D01*
X567750Y494347D01*
Y494122D01*
X567706Y493900D01*
Y478400D01*
X567881Y477522D01*
X568378Y476778D01*
X572648Y472508D01*
X572456Y472046D01*
X407765D01*
X407558Y472546D01*
X407998Y472986D01*
X408430Y473734D01*
X408653Y474568D01*
Y475432D01*
X408430Y476266D01*
X407998Y477014D01*
X407388Y477624D01*
X406640Y478056D01*
X405806Y478279D01*
X404942D01*
X404108Y478056D01*
X403360Y477624D01*
X402750Y477014D01*
X402318Y476266D01*
X402095Y475432D01*
Y474568D01*
X402318Y473734D01*
X402750Y472986D01*
X403190Y472546D01*
X402983Y472046D01*
X379378D01*
X378500Y471872D01*
X378405Y471808D01*
X377906Y472076D01*
Y478279D01*
X371346D01*
Y474965D01*
X369256Y472874D01*
X368794Y473066D01*
Y550250D01*
X370058Y551514D01*
X370305Y551478D01*
D02*
G37*
G36*
X757406Y474050D02*
Y471464D01*
X756944Y471272D01*
X756699Y471517D01*
X755697Y472096D01*
X754579Y472396D01*
X753421D01*
X752970Y472275D01*
X743700Y481544D01*
X743892Y482006D01*
X749450D01*
X757406Y474050D01*
D02*
G37*
G36*
X439575Y467244D02*
X439686Y466958D01*
X439628Y466818D01*
X439502Y466630D01*
X439459Y466408D01*
X439372Y466199D01*
Y465974D01*
X439328Y465752D01*
X439372Y465530D01*
Y465304D01*
X439459Y465096D01*
X439502Y464874D01*
X439628Y464686D01*
X439714Y464477D01*
X439874Y464318D01*
X440000Y464130D01*
X440188Y464004D01*
X440347Y463844D01*
X440556Y463758D01*
X440744Y463632D01*
X440966Y463588D01*
X441174Y463502D01*
X441400D01*
X441622Y463458D01*
X540760D01*
X540952Y462996D01*
X540369Y462413D01*
X540274Y462507D01*
X540066Y462594D01*
X539878Y462719D01*
X539656Y462764D01*
X539447Y462850D01*
X539222D01*
X539000Y462894D01*
X538778Y462850D01*
X538553D01*
X538344Y462764D01*
X538122Y462719D01*
X537934Y462594D01*
X537725Y462507D01*
X537566Y462348D01*
X537378Y462222D01*
X537252Y462034D01*
X537092Y461874D01*
X537006Y461666D01*
X536881Y461478D01*
X536836Y461256D01*
X536750Y461048D01*
Y460822D01*
X536706Y460600D01*
X536750Y460378D01*
Y460152D01*
X536836Y459944D01*
X536881Y459722D01*
X537006Y459534D01*
X537092Y459326D01*
X537187Y459231D01*
X535250Y457294D01*
X427499D01*
X427347Y457794D01*
X427622Y457978D01*
X433522Y463878D01*
X433648Y464066D01*
X433808Y464225D01*
X433894Y464434D01*
X434019Y464622D01*
X434063Y464844D01*
X434150Y465053D01*
Y465278D01*
X434194Y465500D01*
X434150Y465722D01*
Y465947D01*
X434063Y466156D01*
X434019Y466378D01*
X433894Y466566D01*
X433808Y466775D01*
X433648Y466934D01*
X433632Y466958D01*
X433849Y467454D01*
X433853Y467458D01*
X439439D01*
X439575Y467244D01*
D02*
G37*
G36*
X430114Y466958D02*
X425050Y461894D01*
X407553D01*
X407410Y462310D01*
X407406Y462394D01*
X407998Y462986D01*
X408430Y463734D01*
X408653Y464568D01*
Y465432D01*
X408430Y466266D01*
X408031Y466958D01*
X408168Y467423D01*
X408182Y467458D01*
X429907D01*
X430114Y466958D01*
D02*
G37*
G36*
X402580Y467423D02*
X402717Y466958D01*
X402318Y466266D01*
X402095Y465432D01*
Y464568D01*
X402318Y463734D01*
X402750Y462986D01*
X403342Y462394D01*
X403338Y462310D01*
X403195Y461894D01*
X379226D01*
X378348Y461719D01*
X377604Y461222D01*
X374661Y458280D01*
X374194D01*
X373360Y458056D01*
X372794Y457729D01*
X372294Y457968D01*
Y462032D01*
X372794Y462271D01*
X373360Y461944D01*
X374194Y461721D01*
X375058D01*
X375892Y461944D01*
X376640Y462376D01*
X377250Y462986D01*
X377682Y463734D01*
X377906Y464568D01*
Y465035D01*
X380328Y467458D01*
X402566D01*
X402580Y467423D01*
D02*
G37*
G36*
X604478Y470778D02*
X605222Y470281D01*
X606100Y470106D01*
X609344D01*
X609480Y469853D01*
X609522Y469606D01*
X608961Y469045D01*
X608522Y468286D01*
X608295Y467439D01*
Y466914D01*
X595504Y454122D01*
X595042Y454314D01*
Y460400D01*
X594916Y461032D01*
X595377Y461279D01*
X596278Y460378D01*
X596466Y460252D01*
X596626Y460092D01*
X596834Y460006D01*
X597022Y459881D01*
X597244Y459836D01*
X597452Y459750D01*
X597678D01*
X597900Y459706D01*
X598122Y459750D01*
X598348D01*
X598556Y459836D01*
X598778Y459881D01*
X598966Y460006D01*
X599174Y460092D01*
X599334Y460252D01*
X599522Y460378D01*
X599648Y460566D01*
X599808Y460725D01*
X599894Y460934D01*
X600019Y461122D01*
X600064Y461344D01*
X600150Y461552D01*
Y461778D01*
X600194Y462000D01*
X600150Y462222D01*
Y462448D01*
X600064Y462656D01*
X600019Y462878D01*
X599894Y463066D01*
X599808Y463274D01*
X599648Y463434D01*
X599522Y463622D01*
X588122Y475022D01*
X587378Y475519D01*
X586500Y475694D01*
X575950D01*
X575238Y476406D01*
X575446Y476906D01*
X598350D01*
X604478Y470778D01*
D02*
G37*
G36*
X764406Y496508D02*
Y441650D01*
X758147Y435391D01*
X757747Y435698D01*
X758096Y436303D01*
X758396Y437421D01*
Y438579D01*
X758096Y439697D01*
X757517Y440699D01*
X756699Y441517D01*
X755697Y442096D01*
X754579Y442396D01*
X753421D01*
X752970Y442275D01*
X737994Y457250D01*
Y475900D01*
X737819Y476778D01*
X737322Y477522D01*
X736222Y478622D01*
X735478Y479119D01*
X734600Y479294D01*
X674828D01*
X674489Y479669D01*
X674520Y479853D01*
X674656Y480106D01*
X738650D01*
X749725Y469030D01*
X749604Y468579D01*
Y467421D01*
X749904Y466303D01*
X750483Y465301D01*
X751301Y464483D01*
X752303Y463904D01*
X753421Y463604D01*
X754579D01*
X755697Y463904D01*
X756302Y464253D01*
X756609Y463853D01*
X755151Y462396D01*
X749604D01*
Y453604D01*
X758396D01*
Y459151D01*
X761322Y462078D01*
X761820Y462822D01*
X761994Y463700D01*
Y475000D01*
X761820Y475878D01*
X761322Y476622D01*
X752802Y485142D01*
X752993Y485604D01*
X758396D01*
Y491151D01*
X763944Y496700D01*
X764406Y496508D01*
D02*
G37*
G36*
X586954Y457802D02*
Y453152D01*
X587092Y452460D01*
X586631Y452213D01*
X582322Y456522D01*
X582134Y456648D01*
X581975Y456808D01*
X581844Y456861D01*
X581741Y457020D01*
X581699Y457444D01*
X581711Y457486D01*
X581794Y457686D01*
X581919Y457874D01*
X581963Y458096D01*
X582050Y458304D01*
Y458530D01*
X582094Y458752D01*
X582050Y458974D01*
Y459199D01*
X581963Y459408D01*
X581919Y459630D01*
X581794Y459818D01*
X581707Y460027D01*
X581548Y460186D01*
X581422Y460374D01*
X574838Y466958D01*
X575045Y467458D01*
X577298D01*
X586954Y457802D01*
D02*
G37*
G36*
X364206Y550408D02*
Y440000D01*
X364381Y439122D01*
X364878Y438378D01*
X370378Y432878D01*
X371122Y432381D01*
X372000Y432206D01*
X396550D01*
X423161Y405594D01*
Y404500D01*
X427500D01*
Y408839D01*
X426406D01*
X400000Y435244D01*
X400192Y435706D01*
X493248D01*
X493470Y435750D01*
X493696D01*
X493904Y435837D01*
X494126Y435881D01*
X494314Y436006D01*
X494522Y436093D01*
X494682Y436252D01*
X494870Y436378D01*
X494996Y436566D01*
X495155Y436726D01*
X495242Y436934D01*
X495367Y437122D01*
X495411Y437344D01*
X495498Y437552D01*
Y437778D01*
X495542Y438000D01*
X495498Y438222D01*
Y438448D01*
X495411Y438656D01*
X495367Y438878D01*
X495242Y439066D01*
X495155Y439275D01*
X494996Y439434D01*
X494870Y439622D01*
X494682Y439748D01*
X494522Y439908D01*
X494314Y439994D01*
X494126Y440119D01*
X493904Y440164D01*
X493696Y440250D01*
X493470D01*
X493248Y440294D01*
X375950D01*
X374979Y441265D01*
X375194Y441757D01*
X375892Y441944D01*
X376640Y442376D01*
X377250Y442986D01*
X377682Y443734D01*
X377906Y444568D01*
Y445432D01*
X377682Y446266D01*
X377250Y447014D01*
X376640Y447624D01*
X375892Y448056D01*
X375058Y448279D01*
X374194D01*
X373360Y448056D01*
X372794Y447729D01*
X372294Y447968D01*
Y452032D01*
X372794Y452271D01*
X373360Y451944D01*
X374194Y451721D01*
X375058D01*
X375892Y451944D01*
X376640Y452376D01*
X377250Y452986D01*
X377682Y453734D01*
X377906Y454568D01*
Y455035D01*
X380176Y457306D01*
X402372D01*
X402630Y456806D01*
X402318Y456266D01*
X402095Y455432D01*
Y454568D01*
X402318Y453734D01*
X402750Y452986D01*
X403360Y452376D01*
X404108Y451944D01*
X404942Y451721D01*
X405806D01*
X406640Y451944D01*
X407388Y452376D01*
X407718Y452706D01*
X536200D01*
X536371Y452740D01*
X536656Y452287D01*
X536488Y452064D01*
X410144D01*
X409266Y451890D01*
X408522Y451392D01*
X405409Y448279D01*
X405339D01*
X399696Y453922D01*
X398952Y454419D01*
X398074Y454594D01*
X393500D01*
X393278Y454550D01*
X393052D01*
X392844Y454463D01*
X392622Y454419D01*
X392434Y454294D01*
X392226Y454208D01*
X392066Y454048D01*
X391878Y453922D01*
X391752Y453734D01*
X391593Y453575D01*
X391506Y453366D01*
X391381Y453178D01*
X391336Y452956D01*
X391250Y452747D01*
Y452522D01*
X391206Y452300D01*
X391250Y452078D01*
Y451853D01*
X391336Y451644D01*
X391381Y451422D01*
X391506Y451234D01*
X391593Y451025D01*
X391752Y450866D01*
X391878Y450678D01*
X392066Y450552D01*
X392226Y450392D01*
X392434Y450306D01*
X392622Y450181D01*
X392844Y450137D01*
X393052Y450050D01*
X393278D01*
X393500Y450006D01*
X397124D01*
X402095Y445035D01*
Y444568D01*
X402318Y443734D01*
X402750Y442986D01*
X403360Y442376D01*
X404108Y441944D01*
X404942Y441720D01*
X405806D01*
X406640Y441944D01*
X407388Y442376D01*
X407998Y442986D01*
X408430Y443734D01*
X408653Y444568D01*
Y445035D01*
X411094Y447476D01*
X529477D01*
X529684Y446976D01*
X523130Y440422D01*
X523004Y440234D01*
X522845Y440074D01*
X522758Y439866D01*
X522633Y439678D01*
X522588Y439456D01*
X522502Y439248D01*
Y439022D01*
X522458Y438800D01*
X522502Y438578D01*
Y438352D01*
X522588Y438144D01*
X522633Y437922D01*
X522758Y437734D01*
X522845Y437526D01*
X523004Y437366D01*
X523130Y437178D01*
X523318Y437052D01*
X523478Y436893D01*
X523686Y436806D01*
X523874Y436681D01*
X524096Y436636D01*
X524304Y436550D01*
X524530D01*
X524752Y436506D01*
X524974Y436550D01*
X525200D01*
X525408Y436636D01*
X525630Y436681D01*
X525818Y436806D01*
X526026Y436893D01*
X526186Y437052D01*
X526374Y437178D01*
X532402Y443206D01*
X537308D01*
X537500Y442744D01*
X487151Y392396D01*
X481604D01*
Y384594D01*
X392335D01*
X333956Y442974D01*
Y445624D01*
X333865Y446309D01*
X333601Y446947D01*
X333180Y447496D01*
X332632Y447916D01*
X331994Y448180D01*
X331979Y448182D01*
Y518835D01*
X363744Y550600D01*
X364206Y550408D01*
D02*
G37*
G36*
X550830Y459378D02*
X551574Y458881D01*
X552452Y458706D01*
X554408D01*
X554600Y458244D01*
X544150Y447794D01*
X539545D01*
X539338Y448294D01*
X548174Y457130D01*
X548300Y457318D01*
X548459Y457478D01*
X548546Y457686D01*
X548671Y457874D01*
X548715Y458096D01*
X548802Y458304D01*
Y458530D01*
X548846Y458752D01*
X548802Y458974D01*
Y459199D01*
X548715Y459408D01*
X548706Y459458D01*
X548958Y459876D01*
X549054Y459958D01*
X550250D01*
X550830Y459378D01*
D02*
G37*
G36*
X578178Y457130D02*
X578366Y457004D01*
X578525Y456845D01*
X578656Y456790D01*
X578759Y456632D01*
X578801Y456208D01*
X578789Y456166D01*
X578706Y455966D01*
X578581Y455778D01*
X578537Y455556D01*
X578450Y455347D01*
Y455122D01*
X578406Y454900D01*
X578450Y454678D01*
Y454453D01*
X578537Y454244D01*
X578581Y454022D01*
X578706Y453834D01*
X578792Y453625D01*
X578952Y453466D01*
X579078Y453278D01*
X584326Y448030D01*
X585070Y447533D01*
X585948Y447358D01*
X592748D01*
X593454Y447498D01*
X593954Y447196D01*
Y446121D01*
X592127Y444294D01*
X547792D01*
X547600Y444756D01*
X558722Y455878D01*
X558848Y456066D01*
X559008Y456225D01*
X559094Y456434D01*
X559219Y456622D01*
X559264Y456844D01*
X559350Y457053D01*
Y457278D01*
X559394Y457500D01*
X559350Y457722D01*
Y457947D01*
X559264Y458156D01*
X559254Y458206D01*
X559507Y458624D01*
X559602Y458706D01*
X564100D01*
X564322Y458750D01*
X564547D01*
X564756Y458837D01*
X564978Y458881D01*
X565166Y459006D01*
X565375Y459093D01*
X565534Y459252D01*
X565722Y459378D01*
X565848Y459566D01*
X566008Y459726D01*
X566094Y459934D01*
X566219Y460122D01*
X566263Y460344D01*
X566350Y460553D01*
Y460778D01*
X566394Y461000D01*
X566350Y461222D01*
Y461447D01*
X566263Y461656D01*
X566219Y461878D01*
X566094Y462066D01*
X566008Y462275D01*
X565848Y462434D01*
X565722Y462622D01*
X565534Y462748D01*
X565375Y462907D01*
X565351Y462966D01*
X565652Y463458D01*
X571850D01*
X578178Y457130D01*
D02*
G37*
G36*
X608823Y418806D02*
X608522Y418286D01*
X608295Y417439D01*
Y416562D01*
X608522Y415714D01*
X608961Y414955D01*
X609541Y414375D01*
X609521Y414199D01*
X609377Y413875D01*
X597581D01*
X596703Y413700D01*
X595959Y413203D01*
X575030Y392275D01*
X574579Y392396D01*
X573421D01*
X572303Y392096D01*
X571698Y391747D01*
X571391Y392147D01*
X598550Y419306D01*
X608542D01*
X608823Y418806D01*
D02*
G37*
G36*
X562500Y427744D02*
X527030Y392275D01*
X526579Y392396D01*
X525421D01*
X524303Y392096D01*
X523698Y391747D01*
X523391Y392147D01*
X559450Y428206D01*
X562308D01*
X562500Y427744D01*
D02*
G37*
G36*
X556000Y431244D02*
X517030Y392275D01*
X516579Y392396D01*
X515421D01*
X514303Y392096D01*
X513698Y391747D01*
X513391Y392147D01*
X552950Y431706D01*
X555808D01*
X556000Y431244D01*
D02*
G37*
G36*
X549962Y435206D02*
X507030Y392275D01*
X506579Y392396D01*
X505421D01*
X504303Y392096D01*
X503698Y391747D01*
X503391Y392147D01*
X546950Y435706D01*
X549754D01*
X549962Y435206D01*
D02*
G37*
G36*
X543962Y439206D02*
X497030Y392275D01*
X496579Y392396D01*
X495421D01*
X494303Y392096D01*
X493698Y391747D01*
X493391Y392147D01*
X540950Y439706D01*
X543754D01*
X543962Y439206D01*
D02*
G37*
G36*
X64460Y620533D02*
X64777Y620146D01*
X64535Y618932D01*
Y617068D01*
X64899Y615239D01*
X65613Y613517D01*
X66648Y611967D01*
X67967Y610648D01*
X69517Y609613D01*
X71239Y608899D01*
X73068Y608535D01*
X74932D01*
X76761Y608899D01*
X78483Y609613D01*
X80033Y610648D01*
X81352Y611967D01*
X82387Y613517D01*
X83101Y615239D01*
X83465Y617068D01*
Y618932D01*
X83240Y620063D01*
X83558Y620449D01*
X678941Y617838D01*
X679131Y617376D01*
X655078Y593322D01*
X654581Y592578D01*
X654406Y591700D01*
Y582100D01*
X654450Y581878D01*
Y581652D01*
X654536Y581444D01*
X654581Y581222D01*
X654706Y581034D01*
X654792Y580826D01*
X654952Y580666D01*
X655078Y580478D01*
X655266Y580352D01*
X655426Y580193D01*
X655634Y580106D01*
X655822Y579981D01*
X656044Y579937D01*
X656252Y579850D01*
X656478D01*
X656700Y579806D01*
X656922Y579850D01*
X657148D01*
X657356Y579937D01*
X657578Y579981D01*
X657766Y580106D01*
X657974Y580193D01*
X658134Y580352D01*
X658322Y580478D01*
X658448Y580666D01*
X658607Y580826D01*
X658694Y581034D01*
X658819Y581222D01*
X658863Y581444D01*
X658950Y581652D01*
Y581878D01*
X658994Y582100D01*
Y590750D01*
X686051Y617807D01*
X707018Y617715D01*
X707208Y617252D01*
X696878Y606922D01*
X696381Y606178D01*
X696206Y605300D01*
Y593500D01*
X696381Y592622D01*
X696878Y591878D01*
X699752Y589004D01*
Y585736D01*
X699290Y585545D01*
X697543Y587292D01*
X696799Y587789D01*
X695921Y587964D01*
X664293D01*
X663415Y587789D01*
X662671Y587292D01*
X662174Y586548D01*
X661999Y585670D01*
Y555081D01*
X662174Y554203D01*
X662671Y553459D01*
X669043Y547086D01*
Y546561D01*
X669270Y545714D01*
X669709Y544955D01*
X670329Y544335D01*
X671088Y543896D01*
X671936Y543669D01*
X672813D01*
X673660Y543896D01*
X674419Y544335D01*
X675039Y544955D01*
X675478Y545714D01*
X675705Y546561D01*
Y547438D01*
X675478Y548286D01*
X675039Y549045D01*
X674419Y549665D01*
X673660Y550104D01*
X672813Y550331D01*
X672288D01*
X666587Y556031D01*
Y568889D01*
X667049Y569080D01*
X669043Y567086D01*
Y566562D01*
X669270Y565714D01*
X669709Y564955D01*
X670329Y564335D01*
X671088Y563896D01*
X671936Y563669D01*
X672813D01*
X673660Y563896D01*
X674419Y564335D01*
X675039Y564955D01*
X675478Y565714D01*
X675705Y566562D01*
Y567439D01*
X675478Y568286D01*
X675039Y569045D01*
X674419Y569665D01*
X673660Y570104D01*
X672813Y570331D01*
X672288D01*
X670087Y572531D01*
Y573897D01*
X670587Y574186D01*
X671088Y573896D01*
X671936Y573669D01*
X672813D01*
X673660Y573896D01*
X674419Y574335D01*
X674790Y574706D01*
X680040D01*
X680866Y573880D01*
X681610Y573382D01*
X682488Y573208D01*
X731502D01*
X732380Y573382D01*
X733124Y573880D01*
X743090Y583846D01*
X743441Y583752D01*
X744559D01*
X745640Y584042D01*
X746608Y584601D01*
X747399Y585392D01*
X747959Y586360D01*
X748248Y587441D01*
Y588559D01*
X747959Y589640D01*
X747399Y590608D01*
X746608Y591399D01*
X745640Y591959D01*
X744559Y592248D01*
X743441D01*
X742360Y591959D01*
X741392Y591399D01*
X740601Y590608D01*
X740041Y589640D01*
X739752Y588559D01*
Y587441D01*
X739846Y587090D01*
X730552Y577796D01*
X727694D01*
X727502Y578258D01*
X733090Y583846D01*
X733441Y583752D01*
X734559D01*
X735640Y584042D01*
X736608Y584601D01*
X737399Y585392D01*
X737958Y586360D01*
X738248Y587441D01*
Y588559D01*
X737958Y589640D01*
X737399Y590608D01*
X736608Y591399D01*
X735640Y591959D01*
X734559Y592248D01*
X733441D01*
X732360Y591959D01*
X731392Y591399D01*
X730601Y590608D01*
X730042Y589640D01*
X729752Y588559D01*
Y587441D01*
X729846Y587090D01*
X724052Y581296D01*
X711194D01*
X711002Y581758D01*
X713090Y583846D01*
X713441Y583752D01*
X714559D01*
X715640Y584042D01*
X716608Y584601D01*
X717399Y585392D01*
X717958Y586360D01*
X718248Y587441D01*
Y588559D01*
X717958Y589640D01*
X717399Y590608D01*
X716608Y591399D01*
X715640Y591959D01*
X714559Y592248D01*
X713441D01*
X712360Y591959D01*
X711392Y591399D01*
X710601Y590608D01*
X710042Y589640D01*
X709752Y588559D01*
Y587441D01*
X709846Y587090D01*
X708710Y585954D01*
X708248Y586146D01*
Y592248D01*
X702996D01*
X701110Y594135D01*
X701122Y594194D01*
X701679Y594435D01*
X702360Y594041D01*
X703441Y593752D01*
X704559D01*
X705640Y594041D01*
X706608Y594601D01*
X707399Y595392D01*
X707959Y596360D01*
X708248Y597441D01*
Y598559D01*
X708154Y598910D01*
X710135Y600890D01*
X710194Y600878D01*
X710435Y600321D01*
X710042Y599640D01*
X709752Y598559D01*
Y597441D01*
X710042Y596360D01*
X710601Y595392D01*
X711392Y594601D01*
X712360Y594041D01*
X713441Y593752D01*
X714559D01*
X715640Y594041D01*
X716608Y594601D01*
X717399Y595392D01*
X717958Y596360D01*
X718248Y597441D01*
Y598559D01*
X717958Y599640D01*
X717399Y600608D01*
X717264Y600744D01*
X717455Y601206D01*
X720545D01*
X720736Y600744D01*
X720601Y600608D01*
X720042Y599640D01*
X719752Y598559D01*
Y597441D01*
X720042Y596360D01*
X720601Y595392D01*
X721392Y594601D01*
X722360Y594041D01*
X723441Y593752D01*
X724559D01*
X725640Y594041D01*
X726608Y594601D01*
X727399Y595392D01*
X727958Y596360D01*
X728248Y597441D01*
Y598559D01*
X727958Y599640D01*
X727399Y600608D01*
X727264Y600744D01*
X727455Y601206D01*
X730545D01*
X730736Y600744D01*
X730601Y600608D01*
X730042Y599640D01*
X729752Y598559D01*
Y597441D01*
X730042Y596360D01*
X730601Y595392D01*
X731392Y594601D01*
X732360Y594041D01*
X733441Y593752D01*
X734559D01*
X735640Y594041D01*
X736608Y594601D01*
X737399Y595392D01*
X737958Y596360D01*
X738248Y597441D01*
Y598559D01*
X737958Y599640D01*
X737399Y600608D01*
X737264Y600744D01*
X737455Y601206D01*
X740545D01*
X740736Y600744D01*
X740601Y600608D01*
X740041Y599640D01*
X739752Y598559D01*
Y598500D01*
X748248D01*
Y598559D01*
X747959Y599640D01*
X747399Y600608D01*
X747264Y600744D01*
X747455Y601206D01*
X748150D01*
X749806Y599550D01*
Y579850D01*
X731374Y561418D01*
X730829Y561580D01*
X730819Y561622D01*
X730864Y561844D01*
X730950Y562052D01*
Y562278D01*
X730994Y562500D01*
X730950Y562722D01*
Y562948D01*
X730864Y563156D01*
X730819Y563378D01*
X730694Y563566D01*
X730608Y563774D01*
X730448Y563934D01*
X730322Y564122D01*
X730134Y564248D01*
X729975Y564407D01*
X729766Y564494D01*
X729578Y564619D01*
X729356Y564664D01*
X729147Y564750D01*
X728922D01*
X728700Y564794D01*
X677874D01*
X676996Y564619D01*
X676252Y564122D01*
X672460Y560331D01*
X671936D01*
X671088Y560104D01*
X670329Y559665D01*
X669709Y559045D01*
X669270Y558286D01*
X669043Y557439D01*
Y556562D01*
X669270Y555714D01*
X669709Y554955D01*
X670329Y554335D01*
X671088Y553896D01*
X671936Y553669D01*
X672813D01*
X673660Y553896D01*
X674419Y554335D01*
X675039Y554955D01*
X675478Y555714D01*
X675705Y556562D01*
Y557086D01*
X678824Y560206D01*
X728700D01*
X728922Y560250D01*
X729147D01*
X729356Y560336D01*
X729578Y560381D01*
X729620Y560371D01*
X729782Y559826D01*
X725550Y555594D01*
X688674D01*
X687796Y555419D01*
X687052Y554922D01*
X672460Y540331D01*
X671936D01*
X671088Y540104D01*
X670329Y539665D01*
X669709Y539045D01*
X669270Y538286D01*
X669043Y537438D01*
Y536561D01*
X669270Y535714D01*
X669709Y534955D01*
X670329Y534335D01*
X671088Y533896D01*
X671936Y533669D01*
X672813D01*
X673660Y533896D01*
X674419Y534335D01*
X675039Y534955D01*
X675478Y535714D01*
X675705Y536561D01*
Y537086D01*
X689624Y551006D01*
X726500D01*
X727378Y551181D01*
X728122Y551678D01*
X753722Y577278D01*
X754219Y578022D01*
X754394Y578900D01*
Y600500D01*
X754219Y601378D01*
X753722Y602122D01*
X750722Y605122D01*
X749978Y605619D01*
X749100Y605794D01*
X709500D01*
X708622Y605619D01*
X707878Y605122D01*
X704910Y602154D01*
X704559Y602248D01*
X703441D01*
X702360Y601959D01*
X701392Y601399D01*
X701256Y601264D01*
X700794Y601455D01*
Y604350D01*
X710950Y614506D01*
X749302D01*
X760852Y602956D01*
Y517446D01*
X760390Y517254D01*
X758722Y518922D01*
X757978Y519419D01*
X757100Y519594D01*
X689300D01*
X688825Y519500D01*
X688579Y519960D01*
X700324Y531706D01*
X749604D01*
Y529604D01*
X758396D01*
Y538396D01*
X749604D01*
Y536294D01*
X699374D01*
X698496Y536120D01*
X697752Y535622D01*
X672460Y510331D01*
X671936D01*
X671088Y510104D01*
X670329Y509665D01*
X670256Y509592D01*
X669794Y509784D01*
Y511126D01*
X669619Y512004D01*
X669122Y512748D01*
X614957Y566914D01*
Y567439D01*
X614730Y568286D01*
X614291Y569045D01*
X613671Y569665D01*
X612912Y570104D01*
X612065Y570331D01*
X611188D01*
X610340Y570104D01*
X609581Y569665D01*
X608961Y569045D01*
X608522Y568286D01*
X608295Y567439D01*
Y566562D01*
X608522Y565714D01*
X608961Y564955D01*
X609581Y564335D01*
X610340Y563896D01*
X611188Y563669D01*
X611712D01*
X665206Y510176D01*
Y504919D01*
X665381Y504041D01*
X665878Y503297D01*
X668378Y500797D01*
X669122Y500300D01*
X670000Y500125D01*
X670125D01*
X670269Y499801D01*
X670285Y499658D01*
X669944Y499294D01*
X665950D01*
X636622Y528622D01*
X635878Y529119D01*
X635000Y529294D01*
X614042D01*
X613671Y529665D01*
X612912Y530104D01*
X612126Y530314D01*
Y527000D01*
Y523686D01*
X612912Y523896D01*
X613671Y524335D01*
X614042Y524706D01*
X634050D01*
X663378Y495378D01*
X663624Y495213D01*
X663472Y494713D01*
X660931D01*
X637022Y518622D01*
X636278Y519119D01*
X635400Y519294D01*
X614042D01*
X613671Y519665D01*
X612912Y520104D01*
X612065Y520331D01*
X611188D01*
X610340Y520104D01*
X609581Y519665D01*
X608961Y519045D01*
X608522Y518286D01*
X608295Y517439D01*
Y516562D01*
X608522Y515714D01*
X608961Y514955D01*
X609581Y514335D01*
X610340Y513896D01*
X611188Y513669D01*
X612065D01*
X612912Y513896D01*
X613671Y514335D01*
X614042Y514706D01*
X634450D01*
X658359Y490797D01*
X659103Y490300D01*
X659981Y490125D01*
X670125D01*
X670269Y489801D01*
X670289Y489625D01*
X669709Y489045D01*
X669270Y488286D01*
X669043Y487438D01*
Y486561D01*
X669270Y485714D01*
X669571Y485194D01*
X669290Y484694D01*
X643996D01*
X620068Y508622D01*
X619324Y509119D01*
X618446Y509294D01*
X614042D01*
X613671Y509665D01*
X612912Y510104D01*
X612065Y510331D01*
X611188D01*
X610340Y510104D01*
X609581Y509665D01*
X608961Y509045D01*
X608522Y508286D01*
X608295Y507439D01*
Y506562D01*
X608522Y505714D01*
X608961Y504955D01*
X609541Y504375D01*
X609521Y504199D01*
X609377Y503875D01*
X589969D01*
X555842Y538002D01*
X556014Y538467D01*
X556055Y538496D01*
X556248Y538458D01*
X556470Y538502D01*
X556696D01*
X556904Y538588D01*
X557126Y538632D01*
X557314Y538758D01*
X557522Y538844D01*
X557682Y539004D01*
X557870Y539130D01*
X557996Y539318D01*
X558155Y539477D01*
X558242Y539686D01*
X558367Y539874D01*
X558412Y540096D01*
X558498Y540304D01*
Y540530D01*
X558542Y540752D01*
X558498Y540974D01*
Y541199D01*
X558412Y541408D01*
X558367Y541630D01*
X558242Y541818D01*
X558155Y542027D01*
X557996Y542186D01*
X557870Y542374D01*
X549722Y550522D01*
X548978Y551019D01*
X548100Y551194D01*
X542550D01*
X482422Y611322D01*
X481678Y611819D01*
X480800Y611994D01*
X404763D01*
X403885Y611819D01*
X403141Y611322D01*
X397508Y605689D01*
X397495Y605693D01*
X396505D01*
X395550Y605437D01*
X394694Y604943D01*
X393994Y604243D01*
X393500Y603387D01*
X393244Y602431D01*
Y601442D01*
X393248Y601429D01*
X384113Y592294D01*
X350950D01*
X349910Y593334D01*
X350169Y593783D01*
X350518Y593689D01*
X351482D01*
X352412Y593938D01*
X353246Y594420D01*
X353927Y595101D01*
X354408Y595935D01*
X354658Y596865D01*
Y597828D01*
X354408Y598758D01*
X353927Y599592D01*
X353246Y600273D01*
X352412Y600755D01*
X351482Y601004D01*
X350518D01*
X349588Y600755D01*
X348754Y600273D01*
X348073Y599592D01*
X347592Y598758D01*
X347372Y597937D01*
X347070Y597618D01*
X346955Y597531D01*
X346481Y597657D01*
X345518D01*
X345045Y597531D01*
X344657Y597828D01*
X344408Y598758D01*
X343927Y599592D01*
X343246Y600273D01*
X342412Y600755D01*
X341500Y600999D01*
Y597346D01*
Y593694D01*
X341955Y593816D01*
X342342Y593518D01*
X342592Y592588D01*
X343073Y591754D01*
X343754Y591073D01*
X344588Y590592D01*
X345518Y590343D01*
X346413D01*
X348378Y588378D01*
X349122Y587881D01*
X350000Y587706D01*
X385063D01*
X385941Y587881D01*
X386685Y588378D01*
X396492Y598185D01*
X396505Y598181D01*
X397495D01*
X397847Y598276D01*
X398244Y597971D01*
Y597506D01*
X398248Y597492D01*
X391278Y590522D01*
X390780Y589778D01*
X390606Y588900D01*
Y568000D01*
X390780Y567122D01*
X391278Y566378D01*
X393562Y564094D01*
X393355Y563594D01*
X371200D01*
X370322Y563419D01*
X369578Y562922D01*
X328063Y521407D01*
X327566Y520663D01*
X327391Y519785D01*
Y450192D01*
X326929Y450000D01*
X295780Y481150D01*
X295035Y481647D01*
X294157Y481822D01*
X237606D01*
Y485134D01*
X226394D01*
Y477166D01*
X193443Y444215D01*
X184937D01*
Y446858D01*
X176107D01*
Y498258D01*
X176569Y498449D01*
X176969Y498049D01*
X178094Y497399D01*
X179350Y497063D01*
X180650D01*
X181906Y497399D01*
X183031Y498049D01*
X183951Y498969D01*
X184601Y500094D01*
X184937Y501350D01*
Y502650D01*
X184601Y503906D01*
X183951Y505031D01*
X183031Y505951D01*
X181906Y506601D01*
X180650Y506937D01*
X179350D01*
X178094Y506601D01*
X176969Y505951D01*
X176569Y505551D01*
X176107Y505742D01*
Y514705D01*
X178528Y517126D01*
X179350Y516906D01*
X180650D01*
X181906Y517242D01*
X183031Y517892D01*
X183951Y518811D01*
X184376Y519549D01*
X207370D01*
X208248Y519723D01*
X208992Y520220D01*
X227981Y539209D01*
X229262Y538866D01*
X230738D01*
X232164Y539248D01*
X233442Y539986D01*
X234486Y541030D01*
X235224Y542308D01*
X235606Y543734D01*
Y545211D01*
X235224Y546636D01*
X234486Y547915D01*
X233442Y548959D01*
X232164Y549697D01*
X230738Y550079D01*
X229262D01*
X227836Y549697D01*
X226558Y548959D01*
X225514Y547915D01*
X224776Y546636D01*
X224394Y545211D01*
Y543734D01*
X224737Y542454D01*
X206420Y524137D01*
X184376D01*
X183951Y524874D01*
X183031Y525793D01*
X181906Y526443D01*
X180650Y526780D01*
X179350D01*
X178094Y526443D01*
X176969Y525793D01*
X176049Y524874D01*
X175399Y523748D01*
X175063Y522493D01*
Y521193D01*
X175283Y520370D01*
X172191Y517278D01*
X171693Y516533D01*
X171519Y515655D01*
Y484851D01*
X171057Y484660D01*
X155189Y500528D01*
X155409Y501350D01*
Y502650D01*
X155073Y503906D01*
X154423Y505031D01*
X153504Y505951D01*
X152378Y506601D01*
X151122Y506937D01*
X149822D01*
X148567Y506601D01*
X147441Y505951D01*
X146522Y505031D01*
X145872Y503906D01*
X145535Y502650D01*
Y501350D01*
X145872Y500094D01*
X146522Y498969D01*
X147441Y498049D01*
X148567Y497399D01*
X149822Y497063D01*
X151122D01*
X151945Y497283D01*
X168019Y481209D01*
Y424987D01*
X168193Y424109D01*
X168691Y423365D01*
X173205Y418850D01*
X173950Y418353D01*
X174828Y418178D01*
X226851D01*
X227514Y417030D01*
X228558Y415986D01*
X229836Y415248D01*
X231262Y414866D01*
X232738D01*
X234164Y415248D01*
X235442Y415986D01*
X236486Y417030D01*
X237224Y418308D01*
X237606Y419734D01*
Y421210D01*
X237224Y422636D01*
X236486Y423915D01*
X235442Y424959D01*
X234164Y425697D01*
X232738Y426079D01*
X231262D01*
X229836Y425697D01*
X228558Y424959D01*
X227514Y423915D01*
X226851Y422766D01*
X175778D01*
X172607Y425937D01*
Y433244D01*
X173107Y433546D01*
X173813Y433406D01*
X217700D01*
X218578Y433581D01*
X219322Y434078D01*
X229981Y444737D01*
X231262Y444394D01*
X232738D01*
X234164Y444776D01*
X235442Y445514D01*
X236486Y446558D01*
X237224Y447836D01*
X237606Y449262D01*
Y450738D01*
X237224Y452164D01*
X236486Y453442D01*
X235442Y454486D01*
X234164Y455224D01*
X232738Y455606D01*
X231262D01*
X229836Y455224D01*
X228558Y454486D01*
X227514Y453442D01*
X226776Y452164D01*
X226394Y450738D01*
Y449262D01*
X226737Y447981D01*
X216750Y437994D01*
X184937D01*
Y439627D01*
X194394D01*
X195272Y439802D01*
X196016Y440299D01*
X229638Y473921D01*
X237606D01*
Y477234D01*
X293207D01*
X325414Y445026D01*
Y442376D01*
X325504Y441691D01*
X325769Y441053D01*
X326189Y440505D01*
X326738Y440084D01*
X327376Y439819D01*
X328061Y439729D01*
X330711D01*
X389763Y380678D01*
X390507Y380181D01*
X391385Y380006D01*
X548300D01*
X549178Y380181D01*
X549922Y380678D01*
X552849Y383604D01*
X558396D01*
Y392396D01*
X549604D01*
Y386849D01*
X547350Y384594D01*
X529464D01*
X529272Y385056D01*
X529517Y385301D01*
X530096Y386303D01*
X530396Y387421D01*
Y388579D01*
X530275Y389030D01*
X565950Y424706D01*
X609172D01*
X609511Y424331D01*
X609480Y424147D01*
X609344Y423894D01*
X597600D01*
X596722Y423720D01*
X595978Y423222D01*
X565030Y392275D01*
X564579Y392396D01*
X563421D01*
X562303Y392096D01*
X561301Y391517D01*
X560483Y390699D01*
X559904Y389697D01*
X559604Y388579D01*
Y387421D01*
X559904Y386303D01*
X560483Y385301D01*
X561301Y384483D01*
X562303Y383904D01*
X563421Y383604D01*
X564579D01*
X565697Y383904D01*
X566699Y384483D01*
X567517Y385301D01*
X568096Y386303D01*
X568396Y387421D01*
Y388579D01*
X568275Y389030D01*
X569853Y390609D01*
X570253Y390302D01*
X569904Y389697D01*
X569604Y388579D01*
Y387421D01*
X569904Y386303D01*
X570483Y385301D01*
X571301Y384483D01*
X572303Y383904D01*
X573421Y383604D01*
X574579D01*
X575697Y383904D01*
X576699Y384483D01*
X577517Y385301D01*
X578096Y386303D01*
X578396Y387421D01*
Y388579D01*
X578275Y389030D01*
X579853Y390609D01*
X580253Y390302D01*
X579904Y389697D01*
X579604Y388579D01*
Y388500D01*
X583500D01*
Y392396D01*
X583421D01*
X582303Y392096D01*
X581698Y391747D01*
X581391Y392147D01*
X598531Y409287D01*
X608523D01*
X608812Y408787D01*
X608522Y408286D01*
X608312Y407500D01*
X614940D01*
X614730Y408286D01*
X614440Y408787D01*
X614729Y409287D01*
X666843D01*
X669043Y407086D01*
Y406562D01*
X669270Y405714D01*
X669709Y404955D01*
X670329Y404335D01*
X671088Y403896D01*
X671936Y403669D01*
X672813D01*
X673660Y403896D01*
X674419Y404335D01*
X675039Y404955D01*
X675478Y405714D01*
X675705Y406562D01*
Y407439D01*
X675478Y408286D01*
X675039Y409045D01*
X674419Y409665D01*
X673660Y410104D01*
X672813Y410331D01*
X672288D01*
X669415Y413203D01*
X668671Y413700D01*
X667793Y413875D01*
X613874D01*
X613731Y414199D01*
X613711Y414375D01*
X614291Y414955D01*
X614730Y415714D01*
X614957Y416562D01*
Y417439D01*
X614730Y418286D01*
X614429Y418806D01*
X614710Y419306D01*
X666824D01*
X669043Y417086D01*
Y416562D01*
X669270Y415714D01*
X669709Y414955D01*
X670329Y414335D01*
X671088Y413896D01*
X671936Y413669D01*
X672813D01*
X673660Y413896D01*
X674419Y414335D01*
X675039Y414955D01*
X675478Y415714D01*
X675705Y416562D01*
Y417439D01*
X675478Y418286D01*
X675039Y419045D01*
X674419Y419665D01*
X673660Y420104D01*
X672813Y420331D01*
X672288D01*
X669396Y423222D01*
X668652Y423719D01*
X667774Y423894D01*
X613908D01*
X613772Y424147D01*
X613730Y424394D01*
X614291Y424955D01*
X614730Y425714D01*
X614957Y426561D01*
Y427438D01*
X614730Y428286D01*
X614291Y429045D01*
X613671Y429665D01*
X612912Y430104D01*
X612065Y430331D01*
X611188D01*
X610340Y430104D01*
X609581Y429665D01*
X609210Y429294D01*
X607818D01*
X607626Y429756D01*
X611540Y433669D01*
X612065D01*
X612912Y433896D01*
X613671Y434335D01*
X614291Y434955D01*
X614730Y435714D01*
X614957Y436561D01*
Y437438D01*
X614730Y438286D01*
X614291Y439045D01*
X613671Y439665D01*
X612912Y440104D01*
X612065Y440331D01*
X611188D01*
X610340Y440104D01*
X609581Y439665D01*
X608961Y439045D01*
X608522Y438286D01*
X608295Y437438D01*
Y436914D01*
X604176Y432794D01*
X601318D01*
X601126Y433256D01*
X611540Y443669D01*
X612065D01*
X612912Y443896D01*
X613671Y444335D01*
X614291Y444955D01*
X614730Y445714D01*
X614957Y446561D01*
Y447438D01*
X614730Y448286D01*
X614291Y449045D01*
X613671Y449665D01*
X612912Y450104D01*
X612065Y450331D01*
X611188D01*
X610340Y450104D01*
X609581Y449665D01*
X608961Y449045D01*
X608522Y448286D01*
X608295Y447438D01*
Y446914D01*
X606867Y445485D01*
X606585Y445636D01*
X606435Y445761D01*
Y448565D01*
X611540Y453669D01*
X612065D01*
X612912Y453896D01*
X613671Y454335D01*
X614291Y454955D01*
X614730Y455714D01*
X614957Y456562D01*
Y457439D01*
X614730Y458286D01*
X614291Y459045D01*
X613671Y459665D01*
X612912Y460104D01*
X612065Y460331D01*
X611188D01*
X610340Y460104D01*
X609581Y459665D01*
X608961Y459045D01*
X608522Y458286D01*
X608295Y457439D01*
Y456914D01*
X602519Y451138D01*
X602022Y450393D01*
X601847Y449515D01*
Y446666D01*
X595750Y440569D01*
X595623Y440594D01*
X595459Y441137D01*
X597870Y443548D01*
X598368Y444292D01*
X598542Y445170D01*
Y450672D01*
X611540Y463669D01*
X612065D01*
X612912Y463896D01*
X613671Y464335D01*
X614291Y464955D01*
X614730Y465714D01*
X614957Y466562D01*
Y467439D01*
X614730Y468286D01*
X614291Y469045D01*
X613730Y469606D01*
X613772Y469853D01*
X613908Y470106D01*
X614380D01*
X615258Y470281D01*
X616002Y470778D01*
X618602Y473378D01*
X619099Y474122D01*
X619274Y475000D01*
Y481646D01*
X619099Y482524D01*
X618602Y483269D01*
X614957Y486914D01*
Y487438D01*
X614730Y488286D01*
X614291Y489045D01*
X613671Y489665D01*
X612912Y490104D01*
X612065Y490331D01*
X611188D01*
X610340Y490104D01*
X609581Y489665D01*
X608961Y489045D01*
X608522Y488286D01*
X608295Y487438D01*
Y486561D01*
X608522Y485714D01*
X608961Y484955D01*
X609581Y484335D01*
X610340Y483896D01*
X611188Y483669D01*
X611712D01*
X614685Y480696D01*
Y479300D01*
X614185Y479151D01*
X613671Y479665D01*
X612912Y480104D01*
X612065Y480331D01*
X611540D01*
X593046Y498825D01*
X593237Y499287D01*
X608523D01*
X608812Y498787D01*
X608522Y498286D01*
X608295Y497438D01*
Y496561D01*
X608522Y495714D01*
X608961Y494955D01*
X609581Y494335D01*
X610340Y493896D01*
X611188Y493669D01*
X612065D01*
X612912Y493896D01*
X613671Y494335D01*
X614291Y494955D01*
X614730Y495714D01*
X614957Y496561D01*
Y497438D01*
X614730Y498286D01*
X614440Y498787D01*
X614729Y499287D01*
X615350D01*
X644659Y469978D01*
X645403Y469481D01*
X646281Y469306D01*
X669290D01*
X669571Y468806D01*
X669270Y468286D01*
X669043Y467439D01*
Y466562D01*
X669270Y465714D01*
X669709Y464955D01*
X670329Y464335D01*
X671088Y463896D01*
X671936Y463669D01*
X672460D01*
X677752Y458378D01*
X678496Y457881D01*
X679374Y457706D01*
X715678D01*
X715996Y457388D01*
X716740Y456959D01*
X717570Y456736D01*
X718430D01*
X719260Y456959D01*
X720004Y457388D01*
X720612Y457996D01*
X721041Y458740D01*
X721264Y459570D01*
Y460430D01*
X721041Y461260D01*
X720612Y462004D01*
X720004Y462612D01*
X719260Y463041D01*
X718430Y463264D01*
X717570D01*
X716740Y463041D01*
X715996Y462612D01*
X715678Y462294D01*
X680324D01*
X675705Y466914D01*
Y467439D01*
X675478Y468286D01*
X675177Y468806D01*
X675458Y469306D01*
X717800D01*
X718022Y469350D01*
X718248D01*
X718456Y469437D01*
X718678Y469481D01*
X718866Y469606D01*
X719074Y469693D01*
X719234Y469852D01*
X719422Y469978D01*
X719548Y470166D01*
X719707Y470326D01*
X719794Y470534D01*
X719919Y470722D01*
X719964Y470944D01*
X720050Y471152D01*
Y471378D01*
X720094Y471600D01*
X720050Y471822D01*
Y472048D01*
X719964Y472256D01*
X719919Y472478D01*
X719794Y472666D01*
X719707Y472874D01*
X719548Y473034D01*
X719422Y473222D01*
X719234Y473348D01*
X719074Y473507D01*
X718866Y473594D01*
X718678Y473719D01*
X718456Y473764D01*
X718248Y473850D01*
X718022D01*
X717800Y473894D01*
X674656D01*
X674520Y474147D01*
X674489Y474331D01*
X674828Y474706D01*
X733406D01*
Y456300D01*
X733581Y455422D01*
X734078Y454678D01*
X746609Y442147D01*
X746302Y441747D01*
X745697Y442096D01*
X744579Y442396D01*
X744500D01*
Y438500D01*
X748396D01*
Y438579D01*
X748096Y439697D01*
X747747Y440302D01*
X748147Y440609D01*
X749725Y439030D01*
X749604Y438579D01*
Y437421D01*
X749904Y436303D01*
X750483Y435301D01*
X751301Y434483D01*
X752303Y433904D01*
X753421Y433604D01*
X754579D01*
X755697Y433904D01*
X756302Y434253D01*
X756609Y433853D01*
X755030Y432275D01*
X754579Y432396D01*
X753421D01*
X752303Y432096D01*
X751301Y431517D01*
X750483Y430699D01*
X749904Y429697D01*
X749604Y428579D01*
Y427421D01*
X749904Y426303D01*
X750483Y425301D01*
X751301Y424483D01*
X752303Y423904D01*
X753421Y423604D01*
X754579D01*
X755697Y423904D01*
X756699Y424483D01*
X757517Y425301D01*
X758096Y426303D01*
X758396Y427421D01*
Y428579D01*
X758275Y429030D01*
X768322Y439078D01*
X768819Y439822D01*
X768994Y440700D01*
Y610000D01*
X768819Y610878D01*
X768322Y611622D01*
X762937Y617007D01*
X763130Y617469D01*
X819740Y617220D01*
X820603Y615929D01*
X821929Y614603D01*
X823489Y613560D01*
X825222Y612842D01*
X827062Y612476D01*
X828938D01*
X830778Y612842D01*
X832511Y613560D01*
X834071Y614603D01*
X835398Y615929D01*
X836212Y617148D01*
X983140Y616504D01*
X983560Y615489D01*
X984603Y613929D01*
X985929Y612603D01*
X987489Y611560D01*
X989222Y610842D01*
X991062Y610476D01*
X992938D01*
X994778Y610842D01*
X996511Y611560D01*
X996559Y611592D01*
X997000Y611357D01*
X997000Y362643D01*
X996559Y362408D01*
X996511Y362440D01*
X994778Y363158D01*
X992938Y363524D01*
X991062D01*
X989222Y363158D01*
X987489Y362440D01*
X985929Y361398D01*
X984603Y360071D01*
X983560Y358511D01*
X983556Y358500D01*
X834968D01*
X834071Y359398D01*
X832511Y360440D01*
X830778Y361158D01*
X828938Y361524D01*
X827062D01*
X825222Y361158D01*
X823489Y360440D01*
X821929Y359398D01*
X821032Y358500D01*
X786968D01*
X786071Y359398D01*
X784511Y360440D01*
X782778Y361158D01*
X780938Y361524D01*
X779062D01*
X777222Y361158D01*
X775489Y360440D01*
X773929Y359398D01*
X773032Y358500D01*
X78211D01*
X76761Y359101D01*
X74932Y359465D01*
X73068D01*
X71239Y359101D01*
X69789Y358500D01*
X63000D01*
X63000Y620185D01*
X63354Y620538D01*
X64460Y620533D01*
D02*
G37*
%LPC*%
G36*
X410754Y601437D02*
X407500D01*
Y598183D01*
X408450Y598437D01*
X409306Y598932D01*
X410006Y599631D01*
X410500Y600487D01*
X410754Y601437D01*
D02*
G37*
G36*
X481500Y599500D02*
X477250D01*
Y599375D01*
X477574Y598167D01*
X478199Y597083D01*
X479083Y596199D01*
X480167Y595574D01*
X481375Y595250D01*
X481500D01*
Y599500D01*
D02*
G37*
G36*
X466661Y533500D02*
X463610D01*
Y530449D01*
X464484Y530684D01*
X465296Y531152D01*
X465958Y531815D01*
X466427Y532626D01*
X466661Y533500D01*
D02*
G37*
G36*
X508563Y513551D02*
Y510500D01*
X511614D01*
X511379Y511374D01*
X510911Y512185D01*
X510248Y512848D01*
X509437Y513316D01*
X508563Y513551D01*
D02*
G37*
G36*
X507563D02*
X506689Y513316D01*
X505878Y512848D01*
X505215Y512185D01*
X504746Y511374D01*
X504512Y510500D01*
X507563D01*
Y513551D01*
D02*
G37*
G36*
X511614Y509500D02*
X508563D01*
Y506449D01*
X509437Y506683D01*
X510248Y507152D01*
X510911Y507815D01*
X511379Y508626D01*
X511614Y509500D01*
D02*
G37*
G36*
X507563D02*
X504512D01*
X504746Y508626D01*
X505215Y507815D01*
X505878Y507152D01*
X506689Y506683D01*
X507563Y506449D01*
Y509500D01*
D02*
G37*
G36*
X517216Y513604D02*
X514657D01*
X513768Y513427D01*
X513014Y512923D01*
X512510Y512169D01*
X512333Y511279D01*
Y508720D01*
X512510Y507831D01*
X513014Y507077D01*
X513768Y506573D01*
X514657Y506396D01*
X517216D01*
X518106Y506573D01*
X518860Y507077D01*
X519364Y507831D01*
X519541Y508720D01*
Y511279D01*
X519364Y512169D01*
X518860Y512923D01*
X518106Y513427D01*
X517216Y513604D01*
D02*
G37*
G36*
X518900Y431694D02*
X473400D01*
X472522Y431519D01*
X471778Y431022D01*
X449392Y408636D01*
X448637Y408839D01*
X447363D01*
X446132Y408509D01*
X445029Y407872D01*
X444128Y406971D01*
X443491Y405868D01*
X443161Y404637D01*
Y403363D01*
X443491Y402132D01*
X444128Y401029D01*
X445029Y400128D01*
X446132Y399491D01*
X447363Y399161D01*
X448637D01*
X449868Y399491D01*
X450971Y400128D01*
X451872Y401029D01*
X452509Y402132D01*
X452839Y403363D01*
Y404637D01*
X452636Y405392D01*
X474350Y427106D01*
X518900D01*
X519122Y427150D01*
X519347D01*
X519556Y427237D01*
X519778Y427281D01*
X519966Y427406D01*
X520175Y427493D01*
X520334Y427652D01*
X520522Y427778D01*
X520648Y427966D01*
X520808Y428125D01*
X520894Y428334D01*
X521019Y428522D01*
X521064Y428744D01*
X521150Y428953D01*
Y429178D01*
X521194Y429400D01*
X521150Y429622D01*
Y429847D01*
X521064Y430056D01*
X521019Y430278D01*
X520894Y430466D01*
X520808Y430675D01*
X520648Y430834D01*
X520522Y431022D01*
X520334Y431148D01*
X520175Y431308D01*
X519966Y431394D01*
X519778Y431519D01*
X519556Y431564D01*
X519347Y431650D01*
X519122D01*
X518900Y431694D01*
D02*
G37*
G36*
X432839Y408839D02*
X428500D01*
Y404500D01*
X432839D01*
Y408839D01*
D02*
G37*
G36*
Y403500D02*
X428500D01*
Y399161D01*
X432839D01*
Y403500D01*
D02*
G37*
G36*
X427500D02*
X423161D01*
Y399161D01*
X427500D01*
Y403500D01*
D02*
G37*
G36*
X340500Y600999D02*
X339588Y600755D01*
X338754Y600273D01*
X338073Y599592D01*
X337592Y598758D01*
X337348Y597846D01*
X340500D01*
Y600999D01*
D02*
G37*
G36*
X512625Y604750D02*
X511375D01*
X510167Y604426D01*
X509083Y603801D01*
X508199Y602917D01*
X507574Y601833D01*
X507250Y600625D01*
Y599375D01*
X507574Y598167D01*
X508199Y597083D01*
X509083Y596199D01*
X510167Y595574D01*
X511375Y595250D01*
X512625D01*
X513833Y595574D01*
X514917Y596199D01*
X515801Y597083D01*
X516426Y598167D01*
X516750Y599375D01*
Y600625D01*
X516426Y601833D01*
X515801Y602917D01*
X514917Y603801D01*
X513833Y604426D01*
X512625Y604750D01*
D02*
G37*
G36*
X748248Y597500D02*
X744500D01*
Y593752D01*
X744559D01*
X745640Y594041D01*
X746608Y594601D01*
X747399Y595392D01*
X747959Y596360D01*
X748248Y597441D01*
Y597500D01*
D02*
G37*
G36*
X743500D02*
X739752D01*
Y597441D01*
X740041Y596360D01*
X740601Y595392D01*
X741392Y594601D01*
X742360Y594041D01*
X743441Y593752D01*
X743500D01*
Y597500D01*
D02*
G37*
G36*
X340500Y596846D02*
X337348D01*
X337592Y595935D01*
X338073Y595101D01*
X338754Y594420D01*
X339588Y593938D01*
X340500Y593694D01*
Y596846D01*
D02*
G37*
G36*
X116839Y596839D02*
X107161D01*
Y587161D01*
X116839D01*
Y596839D01*
D02*
G37*
G36*
X724559Y592248D02*
X723441D01*
X722360Y591959D01*
X721392Y591399D01*
X720601Y590608D01*
X720042Y589640D01*
X719752Y588559D01*
Y587441D01*
X720042Y586360D01*
X720601Y585392D01*
X721392Y584601D01*
X722360Y584042D01*
X723441Y583752D01*
X724559D01*
X725640Y584042D01*
X726608Y584601D01*
X727399Y585392D01*
X727958Y586360D01*
X728248Y587441D01*
Y588559D01*
X727958Y589640D01*
X727399Y590608D01*
X726608Y591399D01*
X725640Y591959D01*
X724559Y592248D01*
D02*
G37*
G36*
X556637Y590839D02*
X555363D01*
X554132Y590509D01*
X553029Y589872D01*
X552128Y588971D01*
X551491Y587868D01*
X551161Y586637D01*
Y585363D01*
X551491Y584132D01*
X552128Y583029D01*
X553029Y582128D01*
X554132Y581491D01*
X555363Y581161D01*
X556637D01*
X557868Y581491D01*
X558971Y582128D01*
X559872Y583029D01*
X560509Y584132D01*
X560839Y585363D01*
Y586637D01*
X560509Y587868D01*
X559872Y588971D01*
X558971Y589872D01*
X557868Y590509D01*
X556637Y590839D01*
D02*
G37*
G36*
X512625Y594750D02*
X511375D01*
X510167Y594426D01*
X509083Y593801D01*
X508199Y592917D01*
X507574Y591833D01*
X507250Y590625D01*
Y589375D01*
X507574Y588167D01*
X508199Y587083D01*
X509083Y586199D01*
X510167Y585574D01*
X511375Y585250D01*
X512625D01*
X513320Y585436D01*
X523378Y575378D01*
X524122Y574881D01*
X525000Y574706D01*
X567000D01*
X567878Y574881D01*
X568622Y575378D01*
X574406Y581161D01*
X580839D01*
Y590839D01*
X571161D01*
Y584406D01*
X566050Y579294D01*
X525950D01*
X516564Y588680D01*
X516750Y589375D01*
Y590625D01*
X516426Y591833D01*
X515801Y592917D01*
X514917Y593801D01*
X513833Y594426D01*
X512625Y594750D01*
D02*
G37*
G36*
X230738Y579606D02*
X229262D01*
X227836Y579224D01*
X226558Y578486D01*
X225514Y577442D01*
X224851Y576294D01*
X171000D01*
X170122Y576120D01*
X169378Y575622D01*
X168050Y574294D01*
X116263D01*
X115872Y574971D01*
X114971Y575872D01*
X113868Y576509D01*
X112637Y576839D01*
X111363D01*
X110132Y576509D01*
X109029Y575872D01*
X108128Y574971D01*
X107491Y573868D01*
X107161Y572637D01*
Y571363D01*
X107491Y570132D01*
X108128Y569029D01*
X109029Y568128D01*
X110132Y567491D01*
X111363Y567161D01*
X112637D01*
X113868Y567491D01*
X114971Y568128D01*
X115872Y569029D01*
X116263Y569706D01*
X169000D01*
X169878Y569881D01*
X170622Y570378D01*
X171950Y571706D01*
X196438D01*
X196630Y571244D01*
X151945Y526559D01*
X151122Y526780D01*
X149822D01*
X148567Y526443D01*
X147441Y525793D01*
X146522Y524874D01*
X145872Y523748D01*
X145535Y522493D01*
Y521193D01*
X145872Y519937D01*
X146522Y518811D01*
X147441Y517892D01*
X148567Y517242D01*
X149822Y516906D01*
X151122D01*
X152378Y517242D01*
X153504Y517892D01*
X154423Y518811D01*
X155073Y519937D01*
X155409Y521193D01*
Y522493D01*
X155189Y523315D01*
X174692Y542818D01*
X175126Y542568D01*
X175063Y542335D01*
Y541035D01*
X175399Y539779D01*
X176049Y538654D01*
X176969Y537734D01*
X178094Y537084D01*
X179350Y536748D01*
X180650D01*
X181906Y537084D01*
X183031Y537734D01*
X183951Y538654D01*
X184601Y539779D01*
X184937Y541035D01*
Y542335D01*
X184601Y543591D01*
X183951Y544716D01*
X183031Y545636D01*
X181906Y546286D01*
X180650Y546622D01*
X179350D01*
X179117Y546559D01*
X178867Y546992D01*
X203580Y571706D01*
X224851D01*
X225514Y570558D01*
X226558Y569514D01*
X227836Y568776D01*
X229262Y568394D01*
X230738D01*
X232164Y568776D01*
X233442Y569514D01*
X234486Y570558D01*
X235224Y571836D01*
X235606Y573262D01*
Y574738D01*
X235224Y576164D01*
X234486Y577442D01*
X233442Y578486D01*
X232164Y579224D01*
X230738Y579606D01*
D02*
G37*
G36*
X614957Y580331D02*
X608295D01*
Y573669D01*
X614957D01*
Y580331D01*
D02*
G37*
G36*
X235606Y609134D02*
X224394D01*
Y597921D01*
X232362D01*
X249105Y581178D01*
X249850Y580681D01*
X250728Y580506D01*
X259250D01*
X274278Y565478D01*
X274466Y565352D01*
X274625Y565193D01*
X274834Y565106D01*
X275022Y564981D01*
X275244Y564936D01*
X275452Y564850D01*
X275678D01*
X275900Y564806D01*
X276122Y564850D01*
X276348D01*
X276556Y564936D01*
X276778Y564981D01*
X276966Y565106D01*
X277174Y565193D01*
X277334Y565352D01*
X277522Y565478D01*
X277648Y565666D01*
X277807Y565826D01*
X277894Y566034D01*
X278019Y566222D01*
X278064Y566444D01*
X278150Y566652D01*
Y566878D01*
X278194Y567100D01*
X278150Y567322D01*
Y567548D01*
X278064Y567756D01*
X278019Y567978D01*
X277894Y568166D01*
X277807Y568374D01*
X277648Y568534D01*
X277522Y568722D01*
X261822Y584422D01*
X261078Y584919D01*
X260200Y585094D01*
X251678D01*
X235606Y601166D01*
Y609134D01*
D02*
G37*
G36*
X754579Y558396D02*
X754500D01*
Y554500D01*
X758396D01*
Y554579D01*
X758096Y555697D01*
X757517Y556699D01*
X756699Y557517D01*
X755697Y558096D01*
X754579Y558396D01*
D02*
G37*
G36*
X753500D02*
X753421D01*
X752303Y558096D01*
X751301Y557517D01*
X750483Y556699D01*
X749904Y555697D01*
X749604Y554579D01*
Y554500D01*
X753500D01*
Y558396D01*
D02*
G37*
G36*
X612065Y560331D02*
X611188D01*
X610340Y560104D01*
X609581Y559665D01*
X608961Y559045D01*
X608522Y558286D01*
X608295Y557439D01*
Y556562D01*
X608522Y555714D01*
X608961Y554955D01*
X609581Y554335D01*
X610340Y553896D01*
X611188Y553669D01*
X612065D01*
X612912Y553896D01*
X613671Y554335D01*
X614291Y554955D01*
X614730Y555714D01*
X614957Y556562D01*
Y557439D01*
X614730Y558286D01*
X614291Y559045D01*
X613671Y559665D01*
X612912Y560104D01*
X612065Y560331D01*
D02*
G37*
G36*
X758396Y553500D02*
X754500D01*
Y549604D01*
X754579D01*
X755697Y549904D01*
X756699Y550483D01*
X757517Y551301D01*
X758096Y552303D01*
X758396Y553421D01*
Y553500D01*
D02*
G37*
G36*
X753500D02*
X749604D01*
Y553421D01*
X749904Y552303D01*
X750483Y551301D01*
X751301Y550483D01*
X752303Y549904D01*
X753421Y549604D01*
X753500D01*
Y553500D01*
D02*
G37*
G36*
X612065Y550331D02*
X611188D01*
X610340Y550104D01*
X609581Y549665D01*
X608961Y549045D01*
X608522Y548286D01*
X608295Y547438D01*
Y546561D01*
X608522Y545714D01*
X608961Y544955D01*
X609581Y544335D01*
X610340Y543896D01*
X611188Y543669D01*
X612065D01*
X612912Y543896D01*
X613671Y544335D01*
X614291Y544955D01*
X614730Y545714D01*
X614957Y546561D01*
Y547438D01*
X614730Y548286D01*
X614291Y549045D01*
X613671Y549665D01*
X612912Y550104D01*
X612065Y550331D01*
D02*
G37*
G36*
X754579Y548396D02*
X753421D01*
X752303Y548096D01*
X751301Y547517D01*
X750483Y546699D01*
X750249Y546294D01*
X699374D01*
X698496Y546119D01*
X697752Y545622D01*
X672460Y520331D01*
X671936D01*
X671088Y520104D01*
X670329Y519665D01*
X669709Y519045D01*
X669270Y518286D01*
X669043Y517439D01*
Y516562D01*
X669270Y515714D01*
X669709Y514955D01*
X670329Y514335D01*
X671088Y513896D01*
X671936Y513669D01*
X672813D01*
X673660Y513896D01*
X674419Y514335D01*
X675039Y514955D01*
X675478Y515714D01*
X675705Y516562D01*
Y517086D01*
X700324Y541706D01*
X750249D01*
X750483Y541301D01*
X751301Y540483D01*
X752303Y539904D01*
X753421Y539604D01*
X754579D01*
X755697Y539904D01*
X756699Y540483D01*
X757517Y541301D01*
X758096Y542303D01*
X758396Y543421D01*
Y544579D01*
X758096Y545697D01*
X757517Y546699D01*
X756699Y547517D01*
X755697Y548096D01*
X754579Y548396D01*
D02*
G37*
G36*
X151122Y546622D02*
X149822D01*
X148567Y546286D01*
X147441Y545636D01*
X146522Y544716D01*
X145872Y543591D01*
X145535Y542335D01*
Y541035D01*
X145756Y540213D01*
X104378Y498835D01*
X103881Y498091D01*
X103706Y497213D01*
Y402839D01*
X101161D01*
Y393161D01*
X110839D01*
Y402839D01*
X108294D01*
Y496262D01*
X149000Y536968D01*
X149822Y536748D01*
X151122D01*
X152378Y537084D01*
X153504Y537734D01*
X154423Y538654D01*
X155073Y539779D01*
X155409Y541035D01*
Y542335D01*
X155073Y543591D01*
X154423Y544716D01*
X153504Y545636D01*
X152378Y546286D01*
X151122Y546622D01*
D02*
G37*
G36*
X612065Y540331D02*
X611188D01*
X610340Y540104D01*
X609581Y539665D01*
X608961Y539045D01*
X608522Y538286D01*
X608295Y537438D01*
Y536561D01*
X608522Y535714D01*
X608961Y534955D01*
X609581Y534335D01*
X610340Y533896D01*
X611188Y533669D01*
X612065D01*
X612912Y533896D01*
X613671Y534335D01*
X614291Y534955D01*
X614730Y535714D01*
X614957Y536561D01*
Y537438D01*
X614730Y538286D01*
X614291Y539045D01*
X613671Y539665D01*
X612912Y540104D01*
X612065Y540331D01*
D02*
G37*
G36*
X611126Y530314D02*
X610340Y530104D01*
X609581Y529665D01*
X608961Y529045D01*
X608522Y528286D01*
X608312Y527500D01*
X611126D01*
Y530314D01*
D02*
G37*
G36*
X892027Y528342D02*
X889185D01*
Y525500D01*
X892027D01*
Y528342D01*
D02*
G37*
G36*
X611126Y526500D02*
X608312D01*
X608522Y525714D01*
X608961Y524955D01*
X609581Y524335D01*
X610340Y523896D01*
X611126Y523686D01*
Y526500D01*
D02*
G37*
G36*
X672813Y530331D02*
X671936D01*
X671088Y530104D01*
X670329Y529665D01*
X669709Y529045D01*
X669270Y528286D01*
X669043Y527438D01*
Y526561D01*
X669270Y525714D01*
X669709Y524955D01*
X670329Y524335D01*
X671088Y523896D01*
X671936Y523669D01*
X672813D01*
X673660Y523896D01*
X674419Y524335D01*
X675039Y524955D01*
X675478Y525714D01*
X675705Y526561D01*
Y527438D01*
X675478Y528286D01*
X675039Y529045D01*
X674419Y529665D01*
X673660Y530104D01*
X672813Y530331D01*
D02*
G37*
G36*
X888185Y528342D02*
X885343D01*
Y527294D01*
X861000D01*
X860122Y527119D01*
X859378Y526622D01*
X844910Y512154D01*
X844559Y512248D01*
X844500D01*
Y508500D01*
X848248D01*
Y508559D01*
X848154Y508910D01*
X861950Y522706D01*
X885343D01*
Y521658D01*
X888185D01*
Y525000D01*
Y528342D01*
D02*
G37*
G36*
X230738Y520551D02*
X230500D01*
Y515445D01*
X235606D01*
Y515683D01*
X235224Y517109D01*
X234486Y518387D01*
X233442Y519431D01*
X232164Y520169D01*
X230738Y520551D01*
D02*
G37*
G36*
X229500D02*
X229262D01*
X227836Y520169D01*
X226558Y519431D01*
X225514Y518387D01*
X224776Y517109D01*
X224394Y515683D01*
Y515445D01*
X229500D01*
Y520551D01*
D02*
G37*
G36*
X992501Y521805D02*
X991499D01*
X990531Y521546D01*
X989664Y521045D01*
X988955Y520336D01*
X988454Y519469D01*
X988195Y518501D01*
Y517499D01*
X988454Y516531D01*
X988955Y515664D01*
X989664Y514955D01*
X990531Y514454D01*
X991499Y514195D01*
X992501D01*
X993469Y514454D01*
X994336Y514955D01*
X995045Y515664D01*
X995546Y516531D01*
X995805Y517499D01*
Y518501D01*
X995546Y519469D01*
X995045Y520336D01*
X994336Y521045D01*
X993469Y521546D01*
X992501Y521805D01*
D02*
G37*
G36*
X940400Y531894D02*
X903285D01*
X902407Y531719D01*
X901663Y531222D01*
X892527Y522087D01*
X892027Y522294D01*
Y524500D01*
X889185D01*
Y521658D01*
X891391D01*
X891598Y521158D01*
X888783Y518342D01*
X888245D01*
X887395Y518115D01*
X886633Y517675D01*
X886010Y517052D01*
X885570Y516290D01*
X885343Y515440D01*
Y514560D01*
X885570Y513710D01*
X886010Y512948D01*
X886633Y512325D01*
X887395Y511885D01*
X888245Y511657D01*
X889125D01*
X889975Y511885D01*
X890737Y512325D01*
X891360Y512948D01*
X891800Y513710D01*
X892027Y514560D01*
Y515098D01*
X904235Y527306D01*
X916212D01*
X916498Y526806D01*
X916200Y526290D01*
X915973Y525440D01*
Y524560D01*
X916200Y523710D01*
X916640Y522948D01*
X917263Y522325D01*
X918025Y521885D01*
X918875Y521658D01*
X919755D01*
X920605Y521885D01*
X921367Y522325D01*
X921990Y522948D01*
X922430Y523710D01*
X922657Y524560D01*
Y525440D01*
X922430Y526290D01*
X922132Y526806D01*
X922418Y527306D01*
X939450D01*
X948195Y518561D01*
Y514195D01*
X955805D01*
Y521805D01*
X951439D01*
X942022Y531222D01*
X941278Y531719D01*
X940400Y531894D01*
D02*
G37*
G36*
X919755Y518342D02*
X918875D01*
X918025Y518115D01*
X917263Y517675D01*
X916640Y517052D01*
X916200Y516290D01*
X915973Y515440D01*
Y514560D01*
X916200Y513710D01*
X916640Y512948D01*
X917263Y512325D01*
X918025Y511885D01*
X918875Y511657D01*
X919755D01*
X920605Y511885D01*
X921367Y512325D01*
X921990Y512948D01*
X922430Y513710D01*
X922657Y514560D01*
Y515440D01*
X922430Y516290D01*
X921990Y517052D01*
X921367Y517675D01*
X920605Y518115D01*
X919755Y518342D01*
D02*
G37*
G36*
X235606Y514445D02*
X230500D01*
Y509339D01*
X230738D01*
X232164Y509721D01*
X233442Y510459D01*
X234486Y511503D01*
X235224Y512781D01*
X235606Y514207D01*
Y514445D01*
D02*
G37*
G36*
X229500D02*
X224394D01*
Y514207D01*
X224776Y512781D01*
X225514Y511503D01*
X226558Y510459D01*
X227836Y509721D01*
X229262Y509339D01*
X229500D01*
Y514445D01*
D02*
G37*
G36*
X843500Y512248D02*
X843441D01*
X842360Y511959D01*
X841392Y511399D01*
X840601Y510608D01*
X840042Y509640D01*
X839752Y508559D01*
Y508500D01*
X843500D01*
Y512248D01*
D02*
G37*
G36*
X992501Y511805D02*
X991499D01*
X990531Y511546D01*
X989664Y511045D01*
X988955Y510336D01*
X988454Y509469D01*
X988195Y508501D01*
Y507499D01*
X988454Y506531D01*
X988955Y505664D01*
X989664Y504955D01*
X990531Y504454D01*
X991499Y504195D01*
X992501D01*
X993469Y504454D01*
X994336Y504955D01*
X995045Y505664D01*
X995546Y506531D01*
X995805Y507499D01*
Y508501D01*
X995546Y509469D01*
X995045Y510336D01*
X994336Y511045D01*
X993469Y511546D01*
X992501Y511805D01*
D02*
G37*
G36*
X885689Y598294D02*
X885467Y598250D01*
X885242D01*
X885033Y598164D01*
X884811Y598119D01*
X884623Y597994D01*
X884414Y597907D01*
X884255Y597748D01*
X884067Y597622D01*
X883941Y597434D01*
X883782Y597274D01*
X883695Y597066D01*
X883570Y596878D01*
X883525Y596656D01*
X883439Y596448D01*
Y596222D01*
X883395Y596000D01*
Y592520D01*
X864226D01*
X864004Y592476D01*
X863778D01*
X863570Y592389D01*
X863348Y592345D01*
X863160Y592220D01*
X862951Y592134D01*
X862792Y591974D01*
X862604Y591848D01*
X862478Y591660D01*
X862319Y591501D01*
X862232Y591292D01*
X862107Y591104D01*
X862062Y590882D01*
X861976Y590673D01*
Y590448D01*
X861932Y590226D01*
X861976Y590004D01*
Y589778D01*
X862062Y589570D01*
X862107Y589348D01*
X862232Y589160D01*
X862319Y588951D01*
X862478Y588792D01*
X862604Y588604D01*
X878330Y572878D01*
X883395Y567813D01*
Y562752D01*
X883439Y562530D01*
Y562304D01*
X883525Y562096D01*
X883570Y561874D01*
X883695Y561686D01*
X883782Y561478D01*
X883941Y561318D01*
X884067Y561130D01*
X884255Y561004D01*
X884414Y560845D01*
X884623Y560758D01*
X884811Y560633D01*
X885033Y560589D01*
X885242Y560502D01*
X885467D01*
X885689Y560458D01*
X885911Y560502D01*
X886137D01*
X886345Y560589D01*
X886567Y560633D01*
X886755Y560758D01*
X886963Y560845D01*
X887123Y561004D01*
X887311Y561130D01*
X887437Y561318D01*
X887597Y561478D01*
X887683Y561686D01*
X887809Y561874D01*
X887852Y562096D01*
X887939Y562304D01*
Y562530D01*
X887944Y562556D01*
X888454Y562754D01*
X890078Y561130D01*
X890266Y561004D01*
X890425Y560845D01*
X890634Y560758D01*
X890822Y560633D01*
X891044Y560589D01*
X891252Y560502D01*
X891478D01*
X891700Y560458D01*
X891922Y560502D01*
X892148D01*
X892356Y560589D01*
X892578Y560633D01*
X892766Y560758D01*
X892974Y560845D01*
X893134Y561004D01*
X893322Y561130D01*
X893448Y561318D01*
X893608Y561478D01*
X893694Y561686D01*
X893820Y561874D01*
X893863Y562096D01*
X893950Y562304D01*
Y562530D01*
X893994Y562752D01*
X893950Y562974D01*
Y563200D01*
X893863Y563408D01*
X893820Y563630D01*
X893694Y563818D01*
X893608Y564026D01*
X893448Y564186D01*
X893322Y564374D01*
X887983Y569713D01*
Y572206D01*
X891700D01*
X892578Y572381D01*
X893322Y572878D01*
X896050Y575606D01*
X918250D01*
X971206Y522650D01*
Y439500D01*
X971214Y439459D01*
X959050Y427294D01*
X935246D01*
X935038Y427794D01*
X951452Y444207D01*
X951499Y444195D01*
X952501D01*
X953469Y444454D01*
X954336Y444955D01*
X955045Y445664D01*
X955546Y446531D01*
X955805Y447499D01*
Y448501D01*
X955546Y449469D01*
X955045Y450336D01*
X954336Y451045D01*
X953469Y451546D01*
X952501Y451805D01*
X951499D01*
X950531Y451546D01*
X949664Y451045D01*
X948955Y450336D01*
X948454Y449469D01*
X948195Y448501D01*
Y447499D01*
X948207Y447452D01*
X932250Y431494D01*
X920928D01*
X920794Y431994D01*
X921367Y432325D01*
X921990Y432948D01*
X922430Y433710D01*
X922657Y434560D01*
Y435440D01*
X922430Y436290D01*
X921990Y437052D01*
X921367Y437675D01*
X920605Y438115D01*
X919755Y438343D01*
X918875D01*
X918025Y438115D01*
X917263Y437675D01*
X916640Y437052D01*
X916200Y436290D01*
X915973Y435440D01*
Y434560D01*
X916200Y433710D01*
X916640Y432948D01*
X917263Y432325D01*
X917836Y431994D01*
X917702Y431494D01*
X905435D01*
X892027Y444902D01*
Y445440D01*
X891800Y446290D01*
X891360Y447052D01*
X890737Y447675D01*
X889975Y448115D01*
X889125Y448343D01*
X888245D01*
X887395Y448115D01*
X886633Y447675D01*
X886010Y447052D01*
X885570Y446290D01*
X885343Y445440D01*
Y444560D01*
X885570Y443710D01*
X886010Y442948D01*
X886633Y442325D01*
X887395Y441885D01*
X888245Y441657D01*
X888783D01*
X902647Y427794D01*
X902439Y427294D01*
X860403D01*
X860238Y427794D01*
X875259Y442814D01*
X875756Y443559D01*
X875931Y444437D01*
Y489050D01*
X884587Y497706D01*
X885957D01*
X886164Y497206D01*
X886010Y497052D01*
X885570Y496290D01*
X885343Y495440D01*
Y494560D01*
X885570Y493710D01*
X886010Y492948D01*
X886633Y492325D01*
X887395Y491885D01*
X888245Y491657D01*
X888783D01*
X891663Y488778D01*
X892407Y488281D01*
X893285Y488106D01*
X917097D01*
X917194Y487606D01*
X916640Y487052D01*
X916200Y486290D01*
X915973Y485440D01*
Y484560D01*
X916200Y483710D01*
X916498Y483194D01*
X916212Y482694D01*
X894235D01*
X892027Y484902D01*
Y485440D01*
X891800Y486290D01*
X891360Y487052D01*
X890737Y487675D01*
X889975Y488115D01*
X889125Y488343D01*
X888245D01*
X887395Y488115D01*
X886633Y487675D01*
X886010Y487052D01*
X885570Y486290D01*
X885343Y485440D01*
Y484560D01*
X885570Y483710D01*
X886010Y482948D01*
X886633Y482325D01*
X887395Y481885D01*
X888245Y481658D01*
X888783D01*
X891663Y478778D01*
X892407Y478281D01*
X893285Y478106D01*
X917097D01*
X917194Y477606D01*
X916640Y477052D01*
X916200Y476290D01*
X915973Y475440D01*
Y474560D01*
X916200Y473710D01*
X916640Y472948D01*
X916794Y472794D01*
X916587Y472294D01*
X894635D01*
X892027Y474902D01*
Y475440D01*
X891800Y476290D01*
X891360Y477052D01*
X890737Y477675D01*
X889975Y478115D01*
X889125Y478342D01*
X888245D01*
X887395Y478115D01*
X886633Y477675D01*
X886010Y477052D01*
X885570Y476290D01*
X885343Y475440D01*
Y474560D01*
X885570Y473710D01*
X886010Y472948D01*
X886633Y472325D01*
X887395Y471885D01*
X888245Y471658D01*
X888783D01*
X892063Y468378D01*
X892807Y467880D01*
X893685Y467706D01*
X916587D01*
X916794Y467206D01*
X916640Y467052D01*
X916200Y466290D01*
X915973Y465440D01*
Y464560D01*
X916200Y463710D01*
X916640Y462948D01*
X916794Y462794D01*
X916587Y462294D01*
X894635D01*
X892027Y464902D01*
Y465440D01*
X891800Y466290D01*
X891360Y467052D01*
X890737Y467675D01*
X889975Y468115D01*
X889125Y468342D01*
X888245D01*
X887395Y468115D01*
X886633Y467675D01*
X886010Y467052D01*
X885570Y466290D01*
X885343Y465440D01*
Y464560D01*
X885570Y463710D01*
X886010Y462948D01*
X886633Y462325D01*
X887395Y461885D01*
X888245Y461657D01*
X888783D01*
X892063Y458378D01*
X892807Y457880D01*
X893685Y457706D01*
X916587D01*
X916794Y457206D01*
X916640Y457052D01*
X916200Y456290D01*
X915973Y455440D01*
Y454560D01*
X916200Y453710D01*
X916613Y452994D01*
X916516Y452646D01*
X916452Y452494D01*
X894435D01*
X892027Y454902D01*
Y455440D01*
X891800Y456290D01*
X891360Y457052D01*
X890737Y457675D01*
X889975Y458115D01*
X889125Y458343D01*
X888245D01*
X887395Y458115D01*
X886633Y457675D01*
X886010Y457052D01*
X885570Y456290D01*
X885343Y455440D01*
Y454560D01*
X885570Y453710D01*
X886010Y452948D01*
X886633Y452325D01*
X887395Y451885D01*
X888245Y451657D01*
X888783D01*
X891863Y448578D01*
X892607Y448080D01*
X893485Y447906D01*
X916787D01*
X916994Y447406D01*
X916640Y447052D01*
X916200Y446290D01*
X915973Y445440D01*
Y444560D01*
X916200Y443710D01*
X916640Y442948D01*
X917263Y442325D01*
X918025Y441885D01*
X918875Y441657D01*
X919755D01*
X920605Y441885D01*
X921367Y442325D01*
X921990Y442948D01*
X922430Y443710D01*
X922657Y444560D01*
Y445440D01*
X922430Y446290D01*
X921990Y447052D01*
X921636Y447406D01*
X921843Y447906D01*
X944200D01*
X945078Y448081D01*
X945822Y448578D01*
X951452Y454208D01*
X951499Y454195D01*
X952501D01*
X953469Y454454D01*
X954336Y454955D01*
X955045Y455664D01*
X955546Y456531D01*
X955805Y457499D01*
Y458501D01*
X955546Y459469D01*
X955045Y460336D01*
X954336Y461045D01*
X953469Y461546D01*
X952501Y461805D01*
X951499D01*
X950531Y461546D01*
X949664Y461045D01*
X948955Y460336D01*
X948454Y459469D01*
X948195Y458501D01*
Y457499D01*
X948207Y457452D01*
X943250Y452494D01*
X922178D01*
X922114Y452646D01*
X922017Y452994D01*
X922430Y453710D01*
X922657Y454560D01*
Y455440D01*
X922430Y456290D01*
X921990Y457052D01*
X921836Y457206D01*
X922043Y457706D01*
X944000D01*
X944878Y457881D01*
X945622Y458378D01*
X951452Y464208D01*
X951499Y464195D01*
X952501D01*
X953469Y464454D01*
X954336Y464955D01*
X955045Y465664D01*
X955546Y466531D01*
X955805Y467499D01*
Y468501D01*
X955546Y469469D01*
X955045Y470336D01*
X954336Y471045D01*
X953469Y471546D01*
X952501Y471805D01*
X951499D01*
X950531Y471546D01*
X949664Y471045D01*
X948955Y470336D01*
X948454Y469469D01*
X948195Y468501D01*
Y467499D01*
X948207Y467452D01*
X943050Y462294D01*
X922043D01*
X921836Y462794D01*
X921990Y462948D01*
X922430Y463710D01*
X922657Y464560D01*
Y465440D01*
X922430Y466290D01*
X921990Y467052D01*
X921836Y467206D01*
X922043Y467706D01*
X944000D01*
X944878Y467881D01*
X945622Y468378D01*
X951452Y474207D01*
X951499Y474195D01*
X952501D01*
X953469Y474454D01*
X954336Y474955D01*
X955045Y475664D01*
X955546Y476531D01*
X955805Y477499D01*
Y478501D01*
X955546Y479469D01*
X955045Y480336D01*
X954336Y481045D01*
X953469Y481546D01*
X952501Y481805D01*
X951499D01*
X950531Y481546D01*
X949664Y481045D01*
X948955Y480336D01*
X948454Y479469D01*
X948195Y478501D01*
Y477499D01*
X948207Y477452D01*
X943050Y472294D01*
X922043D01*
X921836Y472794D01*
X921990Y472948D01*
X922430Y473710D01*
X922657Y474560D01*
Y475440D01*
X922430Y476290D01*
X921990Y477052D01*
X921436Y477606D01*
X921533Y478106D01*
X944400D01*
X945278Y478281D01*
X946022Y478778D01*
X951452Y484207D01*
X951499Y484195D01*
X952501D01*
X953469Y484454D01*
X954336Y484955D01*
X955045Y485664D01*
X955546Y486531D01*
X955805Y487499D01*
Y488501D01*
X955546Y489469D01*
X955045Y490336D01*
X954336Y491045D01*
X953469Y491546D01*
X952501Y491805D01*
X951499D01*
X950531Y491546D01*
X949664Y491045D01*
X948955Y490336D01*
X948454Y489469D01*
X948195Y488501D01*
Y487499D01*
X948207Y487452D01*
X943450Y482694D01*
X922418D01*
X922132Y483194D01*
X922430Y483710D01*
X922657Y484560D01*
Y485440D01*
X922430Y486290D01*
X921990Y487052D01*
X921436Y487606D01*
X921533Y488106D01*
X944400D01*
X945278Y488281D01*
X946022Y488778D01*
X951452Y494207D01*
X951499Y494195D01*
X952501D01*
X953469Y494454D01*
X954336Y494955D01*
X955045Y495664D01*
X955546Y496531D01*
X955805Y497499D01*
Y498501D01*
X955546Y499469D01*
X955045Y500336D01*
X954336Y501045D01*
X953469Y501546D01*
X952501Y501805D01*
X951499D01*
X950531Y501546D01*
X949664Y501045D01*
X948955Y500336D01*
X948454Y499469D01*
X948195Y498501D01*
Y497499D01*
X948207Y497452D01*
X943450Y492694D01*
X922418D01*
X922132Y493194D01*
X922430Y493710D01*
X922657Y494560D01*
Y495440D01*
X922430Y496290D01*
X921990Y497052D01*
X921836Y497206D01*
X922043Y497706D01*
X944000D01*
X944878Y497881D01*
X945622Y498378D01*
X951452Y504208D01*
X951499Y504195D01*
X952501D01*
X953469Y504454D01*
X954336Y504955D01*
X955045Y505664D01*
X955546Y506531D01*
X955805Y507499D01*
Y508501D01*
X955546Y509469D01*
X955045Y510336D01*
X954336Y511045D01*
X953469Y511546D01*
X952501Y511805D01*
X951499D01*
X950531Y511546D01*
X949664Y511045D01*
X948955Y510336D01*
X948454Y509469D01*
X948195Y508501D01*
Y507499D01*
X948207Y507452D01*
X943050Y502294D01*
X922043D01*
X921836Y502794D01*
X921990Y502948D01*
X922430Y503710D01*
X922657Y504560D01*
Y505440D01*
X922430Y506290D01*
X921990Y507052D01*
X921367Y507675D01*
X920605Y508115D01*
X919755Y508343D01*
X918875D01*
X918025Y508115D01*
X917263Y507675D01*
X916640Y507052D01*
X916200Y506290D01*
X915973Y505440D01*
Y504560D01*
X916200Y503710D01*
X916640Y502948D01*
X916794Y502794D01*
X916587Y502294D01*
X907450D01*
X903122Y506622D01*
X902378Y507119D01*
X901500Y507294D01*
X891118D01*
X890737Y507675D01*
X889975Y508115D01*
X889125Y508343D01*
X888245D01*
X887395Y508115D01*
X886633Y507675D01*
X886010Y507052D01*
X885570Y506290D01*
X885343Y505440D01*
Y504560D01*
X885570Y503710D01*
X886010Y502948D01*
X886164Y502794D01*
X885957Y502294D01*
X883637D01*
X882759Y502119D01*
X882014Y501622D01*
X872014Y491622D01*
X871517Y490878D01*
X871342Y490000D01*
Y445387D01*
X860864Y434909D01*
X860386Y435137D01*
Y436157D01*
X860238Y436710D01*
X861122Y437594D01*
X861619Y438339D01*
X861794Y439216D01*
Y472500D01*
X861619Y473378D01*
X861122Y474122D01*
X858154Y477090D01*
X858248Y477441D01*
Y478559D01*
X857959Y479640D01*
X857399Y480608D01*
X856608Y481399D01*
X855640Y481958D01*
X854559Y482248D01*
X853441D01*
X852360Y481958D01*
X851392Y481399D01*
X850601Y480608D01*
X850041Y479640D01*
X849752Y478559D01*
Y477441D01*
X850041Y476360D01*
X850601Y475392D01*
X851392Y474601D01*
X852360Y474042D01*
X853441Y473752D01*
X854559D01*
X854910Y473846D01*
X856046Y472710D01*
X855854Y472248D01*
X849752D01*
Y463752D01*
X857206D01*
Y440373D01*
X856769Y440014D01*
X856441Y440102D01*
X855245D01*
X854089Y439793D01*
X853053Y439194D01*
X852207Y438349D01*
X851609Y437313D01*
X851299Y436157D01*
Y434961D01*
X851412Y434539D01*
X850964Y434280D01*
X831193Y454052D01*
Y457899D01*
X831275Y457995D01*
X831693Y458247D01*
X831744Y458237D01*
X831952Y458150D01*
X832178D01*
X832400Y458106D01*
X832622Y458150D01*
X832848D01*
X833056Y458237D01*
X833278Y458281D01*
X833466Y458406D01*
X833675Y458493D01*
X833834Y458652D01*
X834022Y458778D01*
X840618Y465374D01*
X841392Y464601D01*
X842360Y464042D01*
X843441Y463752D01*
X844559D01*
X845640Y464042D01*
X846608Y464601D01*
X847399Y465392D01*
X847958Y466360D01*
X848248Y467441D01*
Y468559D01*
X847958Y469640D01*
X847399Y470608D01*
X846608Y471399D01*
X845640Y471958D01*
X844559Y472248D01*
X843441D01*
X842360Y471958D01*
X841392Y471399D01*
X840640Y470648D01*
X840598Y470646D01*
X840403Y471036D01*
X840397Y471152D01*
X843090Y473846D01*
X843441Y473752D01*
X844559D01*
X845640Y474042D01*
X846608Y474601D01*
X847399Y475392D01*
X847958Y476360D01*
X848248Y477441D01*
Y478559D01*
X847958Y479640D01*
X847399Y480608D01*
X846608Y481399D01*
X845640Y481958D01*
X844559Y482248D01*
X843441D01*
X842360Y481958D01*
X841392Y481399D01*
X840601Y480608D01*
X840042Y479640D01*
X839752Y478559D01*
Y477441D01*
X839846Y477090D01*
X827276Y464521D01*
X826779Y463776D01*
X826604Y462899D01*
Y453101D01*
X826779Y452223D01*
X827276Y451479D01*
X839034Y439722D01*
X838727Y439322D01*
X837911Y439793D01*
X836755Y440102D01*
X836657D01*
Y436059D01*
X840701D01*
Y436157D01*
X840391Y437313D01*
X839920Y438129D01*
X840320Y438436D01*
X850962Y427794D01*
X850797Y427294D01*
X849850D01*
X845522Y431622D01*
X845334Y431748D01*
X845175Y431908D01*
X844966Y431994D01*
X844778Y432119D01*
X844556Y432163D01*
X844348Y432250D01*
X844122D01*
X843900Y432294D01*
X843678Y432250D01*
X843452D01*
X843244Y432163D01*
X843022Y432119D01*
X842834Y431994D01*
X842626Y431908D01*
X842466Y431748D01*
X842278Y431622D01*
X842152Y431434D01*
X841992Y431275D01*
X841906Y431066D01*
X841781Y430878D01*
X841737Y430656D01*
X841650Y430447D01*
Y430222D01*
X841606Y430000D01*
X841650Y429778D01*
Y429553D01*
X841737Y429344D01*
X841781Y429122D01*
X841906Y428934D01*
X841992Y428725D01*
X842152Y428566D01*
X842278Y428378D01*
X847278Y423378D01*
X848022Y422881D01*
X848900Y422706D01*
X960000D01*
X960878Y422881D01*
X961622Y423378D01*
X975622Y437378D01*
X975626Y437384D01*
X975632Y437387D01*
X975875Y437756D01*
X976120Y438122D01*
X976121Y438129D01*
X976125Y438135D01*
X976208Y438567D01*
X976294Y439000D01*
X976293Y439007D01*
X976294Y439014D01*
X975794Y523614D01*
X975706Y524045D01*
X975620Y524478D01*
X975616Y524484D01*
X975614Y524490D01*
X975368Y524855D01*
X975122Y525222D01*
X920822Y579522D01*
X908496Y591848D01*
X907752Y592345D01*
X906874Y592520D01*
X887983D01*
Y596000D01*
X887939Y596222D01*
Y596448D01*
X887852Y596656D01*
X887809Y596878D01*
X887683Y597066D01*
X887597Y597274D01*
X887437Y597434D01*
X887311Y597622D01*
X887123Y597748D01*
X886963Y597907D01*
X886755Y597994D01*
X886567Y598119D01*
X886345Y598164D01*
X886137Y598250D01*
X885911D01*
X885689Y598294D01*
D02*
G37*
G36*
X854559Y512248D02*
X853441D01*
X852360Y511959D01*
X851392Y511399D01*
X850601Y510608D01*
X850041Y509640D01*
X849752Y508559D01*
Y507441D01*
X850041Y506360D01*
X850601Y505392D01*
X851392Y504601D01*
X852360Y504041D01*
X853441Y503752D01*
X854559D01*
X855640Y504041D01*
X856608Y504601D01*
X857399Y505392D01*
X857959Y506360D01*
X858248Y507441D01*
Y508559D01*
X857959Y509640D01*
X857399Y510608D01*
X856608Y511399D01*
X855640Y511959D01*
X854559Y512248D01*
D02*
G37*
G36*
X848248Y507500D02*
X844500D01*
Y503752D01*
X844559D01*
X845640Y504041D01*
X846608Y504601D01*
X847399Y505392D01*
X847958Y506360D01*
X848248Y507441D01*
Y507500D01*
D02*
G37*
G36*
X843500D02*
X839752D01*
Y507441D01*
X840042Y506360D01*
X840601Y505392D01*
X841392Y504601D01*
X842360Y504041D01*
X843441Y503752D01*
X843500D01*
Y507500D01*
D02*
G37*
G36*
X992501Y501805D02*
X991499D01*
X990531Y501546D01*
X989664Y501045D01*
X988955Y500336D01*
X988454Y499469D01*
X988195Y498501D01*
Y497499D01*
X988454Y496531D01*
X988955Y495664D01*
X989664Y494955D01*
X990531Y494454D01*
X991499Y494195D01*
X992501D01*
X993469Y494454D01*
X994336Y494955D01*
X995045Y495664D01*
X995546Y496531D01*
X995805Y497499D01*
Y498501D01*
X995546Y499469D01*
X995045Y500336D01*
X994336Y501045D01*
X993469Y501546D01*
X992501Y501805D01*
D02*
G37*
G36*
X854559Y502248D02*
X853441D01*
X852360Y501959D01*
X851392Y501399D01*
X850601Y500608D01*
X850041Y499640D01*
X849752Y498559D01*
Y497441D01*
X850041Y496360D01*
X850601Y495392D01*
X851392Y494601D01*
X852360Y494041D01*
X853441Y493752D01*
X854559D01*
X855640Y494041D01*
X856608Y494601D01*
X857399Y495392D01*
X857959Y496360D01*
X858248Y497441D01*
Y498559D01*
X857959Y499640D01*
X857399Y500608D01*
X856608Y501399D01*
X855640Y501959D01*
X854559Y502248D01*
D02*
G37*
G36*
X844559D02*
X843441D01*
X842360Y501959D01*
X841392Y501399D01*
X840601Y500608D01*
X840042Y499640D01*
X839752Y498559D01*
Y497441D01*
X840042Y496360D01*
X840601Y495392D01*
X841392Y494601D01*
X842360Y494041D01*
X843441Y493752D01*
X844559D01*
X845640Y494041D01*
X846608Y494601D01*
X847399Y495392D01*
X847958Y496360D01*
X848248Y497441D01*
Y498559D01*
X847958Y499640D01*
X847399Y500608D01*
X846608Y501399D01*
X845640Y501959D01*
X844559Y502248D01*
D02*
G37*
G36*
X871000Y507294D02*
X870778Y507250D01*
X870552D01*
X870344Y507163D01*
X870122Y507119D01*
X869934Y506994D01*
X869726Y506908D01*
X869566Y506748D01*
X869378Y506622D01*
X854910Y492154D01*
X854559Y492248D01*
X853441D01*
X852360Y491959D01*
X851392Y491399D01*
X850601Y490608D01*
X850041Y489640D01*
X849752Y488559D01*
Y487441D01*
X850041Y486360D01*
X850601Y485392D01*
X851392Y484601D01*
X852360Y484042D01*
X853441Y483752D01*
X854559D01*
X854910Y483846D01*
X860378Y478378D01*
X861122Y477881D01*
X862000Y477706D01*
X868100D01*
X868322Y477750D01*
X868548D01*
X868756Y477837D01*
X868978Y477881D01*
X869166Y478006D01*
X869374Y478092D01*
X869534Y478252D01*
X869722Y478378D01*
X869848Y478566D01*
X870008Y478725D01*
X870094Y478934D01*
X870219Y479122D01*
X870263Y479344D01*
X870350Y479553D01*
Y479778D01*
X870394Y480000D01*
X870350Y480222D01*
Y480447D01*
X870263Y480656D01*
X870219Y480878D01*
X870094Y481066D01*
X870008Y481275D01*
X869848Y481434D01*
X869722Y481622D01*
X869534Y481748D01*
X869374Y481908D01*
X869166Y481994D01*
X868978Y482119D01*
X868756Y482163D01*
X868548Y482250D01*
X868322D01*
X868100Y482294D01*
X862950D01*
X858154Y487090D01*
X858248Y487441D01*
Y488559D01*
X858154Y488910D01*
X872622Y503378D01*
X872748Y503566D01*
X872908Y503725D01*
X872994Y503934D01*
X873119Y504122D01*
X873164Y504344D01*
X873250Y504553D01*
Y504778D01*
X873294Y505000D01*
X873250Y505222D01*
Y505447D01*
X873164Y505656D01*
X873119Y505878D01*
X872994Y506066D01*
X872908Y506275D01*
X872748Y506434D01*
X872622Y506622D01*
X872434Y506748D01*
X872274Y506908D01*
X872066Y506994D01*
X871878Y507119D01*
X871656Y507163D01*
X871448Y507250D01*
X871222D01*
X871000Y507294D01*
D02*
G37*
G36*
X992501Y491805D02*
X991499D01*
X990531Y491546D01*
X989664Y491045D01*
X988955Y490336D01*
X988454Y489469D01*
X988195Y488501D01*
Y487499D01*
X988454Y486531D01*
X988955Y485664D01*
X989664Y484955D01*
X990531Y484454D01*
X991499Y484195D01*
X992501D01*
X993469Y484454D01*
X994336Y484955D01*
X995045Y485664D01*
X995546Y486531D01*
X995805Y487499D01*
Y488501D01*
X995546Y489469D01*
X995045Y490336D01*
X994336Y491045D01*
X993469Y491546D01*
X992501Y491805D01*
D02*
G37*
G36*
X844559Y492248D02*
X843441D01*
X842360Y491959D01*
X841392Y491399D01*
X840601Y490608D01*
X840042Y489640D01*
X839752Y488559D01*
Y487441D01*
X840042Y486360D01*
X840601Y485392D01*
X841392Y484601D01*
X842360Y484042D01*
X843441Y483752D01*
X844559D01*
X845640Y484042D01*
X846608Y484601D01*
X847399Y485392D01*
X847958Y486360D01*
X848248Y487441D01*
Y488559D01*
X847958Y489640D01*
X847399Y490608D01*
X846608Y491399D01*
X845640Y491959D01*
X844559Y492248D01*
D02*
G37*
G36*
X992501Y481805D02*
X991499D01*
X990531Y481546D01*
X989664Y481045D01*
X988955Y480336D01*
X988454Y479469D01*
X988195Y478501D01*
Y477499D01*
X988454Y476531D01*
X988955Y475664D01*
X989664Y474955D01*
X990531Y474454D01*
X991499Y474195D01*
X992501D01*
X993469Y474454D01*
X994336Y474955D01*
X995045Y475664D01*
X995546Y476531D01*
X995805Y477499D01*
Y478501D01*
X995546Y479469D01*
X995045Y480336D01*
X994336Y481045D01*
X993469Y481546D01*
X992501Y481805D01*
D02*
G37*
G36*
Y471805D02*
X991499D01*
X990531Y471546D01*
X989664Y471045D01*
X988955Y470336D01*
X988454Y469469D01*
X988195Y468501D01*
Y467499D01*
X988454Y466531D01*
X988955Y465664D01*
X989664Y464955D01*
X990531Y464454D01*
X991499Y464195D01*
X992501D01*
X993469Y464454D01*
X994336Y464955D01*
X995045Y465664D01*
X995546Y466531D01*
X995805Y467499D01*
Y468501D01*
X995546Y469469D01*
X995045Y470336D01*
X994336Y471045D01*
X993469Y471546D01*
X992501Y471805D01*
D02*
G37*
G36*
Y461805D02*
X991499D01*
X990531Y461546D01*
X989664Y461045D01*
X988955Y460336D01*
X988454Y459469D01*
X988195Y458501D01*
Y457499D01*
X988454Y456531D01*
X988955Y455664D01*
X989664Y454955D01*
X990531Y454454D01*
X991499Y454195D01*
X992501D01*
X993469Y454454D01*
X994336Y454955D01*
X995045Y455664D01*
X995546Y456531D01*
X995805Y457499D01*
Y458501D01*
X995546Y459469D01*
X995045Y460336D01*
X994336Y461045D01*
X993469Y461546D01*
X992501Y461805D01*
D02*
G37*
G36*
X290874Y448248D02*
X290815D01*
Y444500D01*
X294563D01*
Y444559D01*
X294273Y445640D01*
X293714Y446608D01*
X292923Y447399D01*
X291955Y447959D01*
X290874Y448248D01*
D02*
G37*
G36*
X289815D02*
X289756D01*
X288675Y447959D01*
X287707Y447399D01*
X286916Y446608D01*
X286356Y445640D01*
X286067Y444559D01*
Y444500D01*
X289815D01*
Y448248D01*
D02*
G37*
G36*
X992501Y451805D02*
X991499D01*
X990531Y451546D01*
X989664Y451045D01*
X988955Y450336D01*
X988454Y449469D01*
X988195Y448501D01*
Y447499D01*
X988454Y446531D01*
X988955Y445664D01*
X989664Y444955D01*
X990531Y444454D01*
X991499Y444195D01*
X992501D01*
X993469Y444454D01*
X994336Y444955D01*
X995045Y445664D01*
X995546Y446531D01*
X995805Y447499D01*
Y448501D01*
X995546Y449469D01*
X995045Y450336D01*
X994336Y451045D01*
X993469Y451546D01*
X992501Y451805D01*
D02*
G37*
G36*
X294563Y443500D02*
X290815D01*
Y439752D01*
X290874D01*
X291955Y440041D01*
X292923Y440601D01*
X293714Y441392D01*
X294273Y442360D01*
X294563Y443441D01*
Y443500D01*
D02*
G37*
G36*
X289815D02*
X286067D01*
Y443441D01*
X286356Y442360D01*
X286916Y441392D01*
X287707Y440601D01*
X288675Y440041D01*
X289756Y439752D01*
X289815D01*
Y443500D01*
D02*
G37*
G36*
X743500Y442396D02*
X743421D01*
X742303Y442096D01*
X741301Y441517D01*
X740483Y440699D01*
X739904Y439697D01*
X739604Y438579D01*
Y438500D01*
X743500D01*
Y442396D01*
D02*
G37*
G36*
X151122Y446858D02*
X149822D01*
X148567Y446522D01*
X147441Y445872D01*
X146522Y444953D01*
X145872Y443827D01*
X145535Y442571D01*
Y441271D01*
X145872Y440016D01*
X146522Y438890D01*
X147441Y437971D01*
X148567Y437321D01*
X149822Y436984D01*
X151122D01*
X152378Y437321D01*
X153504Y437971D01*
X154423Y438890D01*
X155073Y440016D01*
X155409Y441271D01*
Y442571D01*
X155073Y443827D01*
X154423Y444953D01*
X153504Y445872D01*
X152378Y446522D01*
X151122Y446858D01*
D02*
G37*
G36*
X835657Y440102D02*
X835559D01*
X834404Y439793D01*
X833368Y439194D01*
X832522Y438349D01*
X831924Y437313D01*
X831614Y436157D01*
Y436059D01*
X835657D01*
Y440102D01*
D02*
G37*
G36*
X672813Y440331D02*
X671936D01*
X671088Y440104D01*
X670329Y439665D01*
X669709Y439045D01*
X669270Y438286D01*
X669043Y437438D01*
Y436561D01*
X669270Y435714D01*
X669709Y434955D01*
X670329Y434335D01*
X671088Y433896D01*
X671936Y433669D01*
X672813D01*
X673660Y433896D01*
X674419Y434335D01*
X675039Y434955D01*
X675478Y435714D01*
X675705Y436561D01*
Y437438D01*
X675478Y438286D01*
X675039Y439045D01*
X674419Y439665D01*
X673660Y440104D01*
X672813Y440331D01*
D02*
G37*
G36*
X748396Y437500D02*
X744500D01*
Y433604D01*
X744579D01*
X745697Y433904D01*
X746699Y434483D01*
X747517Y435301D01*
X748096Y436303D01*
X748396Y437421D01*
Y437500D01*
D02*
G37*
G36*
X743500D02*
X739604D01*
Y437421D01*
X739904Y436303D01*
X740483Y435301D01*
X741301Y434483D01*
X742303Y433904D01*
X743421Y433604D01*
X743500D01*
Y437500D01*
D02*
G37*
G36*
X889125Y438343D02*
X888245D01*
X887395Y438115D01*
X886633Y437675D01*
X886010Y437052D01*
X885570Y436290D01*
X885343Y435440D01*
Y434560D01*
X885570Y433710D01*
X886010Y432948D01*
X886633Y432325D01*
X887395Y431885D01*
X888245Y431658D01*
X889125D01*
X889975Y431885D01*
X890737Y432325D01*
X891360Y432948D01*
X891800Y433710D01*
X892027Y434560D01*
Y435440D01*
X891800Y436290D01*
X891360Y437052D01*
X890737Y437675D01*
X889975Y438115D01*
X889125Y438343D01*
D02*
G37*
G36*
X840701Y435059D02*
X836657D01*
Y431016D01*
X836755D01*
X837911Y431325D01*
X838947Y431923D01*
X839793Y432769D01*
X840391Y433805D01*
X840701Y434961D01*
Y435059D01*
D02*
G37*
G36*
X835657D02*
X831614D01*
Y434961D01*
X831924Y433805D01*
X832522Y432769D01*
X833368Y431923D01*
X834404Y431325D01*
X835559Y431016D01*
X835657D01*
Y435059D01*
D02*
G37*
G36*
X672813Y430331D02*
X671936D01*
X671088Y430104D01*
X670329Y429665D01*
X669709Y429045D01*
X669270Y428286D01*
X669043Y427438D01*
Y426561D01*
X669270Y425714D01*
X669709Y424955D01*
X670329Y424335D01*
X671088Y423896D01*
X671936Y423669D01*
X672813D01*
X673660Y423896D01*
X674419Y424335D01*
X675039Y424955D01*
X675478Y425714D01*
X675705Y426561D01*
Y427438D01*
X675478Y428286D01*
X675039Y429045D01*
X674419Y429665D01*
X673660Y430104D01*
X672813Y430331D01*
D02*
G37*
G36*
Y460331D02*
X671936D01*
X671088Y460104D01*
X670329Y459665D01*
X669709Y459045D01*
X669270Y458286D01*
X669043Y457439D01*
Y456562D01*
X669270Y455714D01*
X669709Y454955D01*
X670329Y454335D01*
X671088Y453896D01*
X671936Y453669D01*
X672460D01*
X699752Y426378D01*
X700496Y425881D01*
X701374Y425706D01*
X740249D01*
X740483Y425301D01*
X741301Y424483D01*
X742303Y423904D01*
X743421Y423604D01*
X744579D01*
X745697Y423904D01*
X746699Y424483D01*
X747517Y425301D01*
X748096Y426303D01*
X748396Y427421D01*
Y428579D01*
X748096Y429697D01*
X747517Y430699D01*
X746699Y431517D01*
X745697Y432096D01*
X744579Y432396D01*
X743421D01*
X742303Y432096D01*
X741301Y431517D01*
X740483Y430699D01*
X740249Y430294D01*
X702324D01*
X675705Y456914D01*
Y457439D01*
X675478Y458286D01*
X675039Y459045D01*
X674419Y459665D01*
X673660Y460104D01*
X672813Y460331D01*
D02*
G37*
G36*
Y450331D02*
X671936D01*
X671088Y450104D01*
X670329Y449665D01*
X669709Y449045D01*
X669270Y448286D01*
X669043Y447438D01*
Y446561D01*
X669270Y445714D01*
X669709Y444955D01*
X670329Y444335D01*
X671088Y443896D01*
X671936Y443669D01*
X672460D01*
X708752Y407378D01*
X709496Y406881D01*
X710374Y406706D01*
X745000D01*
X745878Y406881D01*
X746622Y407378D01*
X752849Y413604D01*
X758396D01*
Y422396D01*
X749604D01*
Y416849D01*
X748147Y415391D01*
X747747Y415698D01*
X748096Y416303D01*
X748396Y417421D01*
Y418579D01*
X748096Y419697D01*
X747517Y420699D01*
X746699Y421517D01*
X745697Y422096D01*
X744579Y422396D01*
X743421D01*
X742303Y422096D01*
X741301Y421517D01*
X740483Y420699D01*
X740249Y420294D01*
X722063D01*
X721185Y420119D01*
X720441Y419622D01*
X718019Y417201D01*
X714736D01*
Y411294D01*
X711324D01*
X675705Y446914D01*
Y447438D01*
X675478Y448286D01*
X675039Y449045D01*
X674419Y449665D01*
X673660Y450104D01*
X672813Y450331D01*
D02*
G37*
G36*
X614940Y406500D02*
X612126D01*
Y403686D01*
X612912Y403896D01*
X613671Y404335D01*
X614291Y404955D01*
X614730Y405714D01*
X614940Y406500D01*
D02*
G37*
G36*
X611126D02*
X608312D01*
X608522Y405714D01*
X608961Y404955D01*
X609581Y404335D01*
X610340Y403896D01*
X611126Y403686D01*
Y406500D01*
D02*
G37*
G36*
X180500Y403754D02*
Y400500D01*
X183754D01*
X183500Y401450D01*
X183005Y402306D01*
X182306Y403006D01*
X181450Y403500D01*
X180500Y403754D01*
D02*
G37*
G36*
X754579Y400396D02*
X753421D01*
X752303Y400096D01*
X751301Y399517D01*
X750483Y398699D01*
X750249Y398294D01*
X675473D01*
X675039Y399045D01*
X674419Y399665D01*
X673660Y400104D01*
X672813Y400331D01*
X671936D01*
X671088Y400104D01*
X670329Y399665D01*
X669709Y399045D01*
X669270Y398286D01*
X669043Y397439D01*
Y396562D01*
X669270Y395714D01*
X669709Y394955D01*
X670329Y394335D01*
X671088Y393896D01*
X671936Y393669D01*
X672813D01*
X673130Y393754D01*
X673374Y393706D01*
X750249D01*
X750483Y393301D01*
X751301Y392483D01*
X752303Y391904D01*
X753421Y391604D01*
X754579D01*
X755697Y391904D01*
X756699Y392483D01*
X757517Y393301D01*
X758096Y394303D01*
X758396Y395421D01*
Y396579D01*
X758096Y397697D01*
X757517Y398699D01*
X756699Y399517D01*
X755697Y400096D01*
X754579Y400396D01*
D02*
G37*
G36*
X868869Y418449D02*
X867225D01*
X865600Y418191D01*
X864036Y417683D01*
X862571Y416937D01*
X861240Y415970D01*
X860077Y414807D01*
X859111Y413476D01*
X858364Y412011D01*
X857856Y410447D01*
X857598Y408822D01*
Y407178D01*
X857856Y405553D01*
X858364Y403989D01*
X859111Y402524D01*
X860077Y401193D01*
X861240Y400030D01*
X862571Y399063D01*
X864036Y398317D01*
X865600Y397809D01*
X867225Y397551D01*
X868869D01*
X870494Y397809D01*
X872058Y398317D01*
X873524Y399063D01*
X874854Y400030D01*
X876017Y401193D01*
X876984Y402524D01*
X877730Y403989D01*
X878239Y405553D01*
X878496Y407178D01*
Y408822D01*
X878239Y410447D01*
X877730Y412011D01*
X876984Y413476D01*
X876017Y414807D01*
X874854Y415970D01*
X873524Y416937D01*
X872058Y417683D01*
X870494Y418191D01*
X868869Y418449D01*
D02*
G37*
G36*
X824775D02*
X823131D01*
X821506Y418191D01*
X819942Y417683D01*
X818476Y416937D01*
X817146Y415970D01*
X815983Y414807D01*
X815016Y413476D01*
X814270Y412011D01*
X813761Y410447D01*
X813504Y408822D01*
Y407178D01*
X813761Y405553D01*
X814270Y403989D01*
X815016Y402524D01*
X815983Y401193D01*
X817146Y400030D01*
X818476Y399063D01*
X819942Y398317D01*
X821506Y397809D01*
X823131Y397551D01*
X824775D01*
X826400Y397809D01*
X827964Y398317D01*
X829429Y399063D01*
X830760Y400030D01*
X831923Y401193D01*
X832889Y402524D01*
X833636Y403989D01*
X834144Y405553D01*
X834402Y407178D01*
Y408822D01*
X834144Y410447D01*
X833636Y412011D01*
X832889Y413476D01*
X831923Y414807D01*
X830760Y415970D01*
X829429Y416937D01*
X827964Y417683D01*
X826400Y418191D01*
X824775Y418449D01*
D02*
G37*
G36*
X183754Y399500D02*
X180500D01*
Y396246D01*
X181450Y396500D01*
X182306Y396994D01*
X183005Y397694D01*
X183500Y398550D01*
X183754Y399500D01*
D02*
G37*
G36*
X170494Y403756D02*
X169506D01*
X168550Y403500D01*
X167694Y403006D01*
X166995Y402306D01*
X166500Y401450D01*
X166244Y400494D01*
Y399505D01*
X166500Y398550D01*
X166995Y397694D01*
X167694Y396994D01*
X168550Y396500D01*
X169506Y396244D01*
X170494D01*
X170847Y396339D01*
X171244Y396034D01*
Y395568D01*
X171500Y394613D01*
X171994Y393757D01*
X172694Y393057D01*
X173550Y392563D01*
X174505Y392307D01*
X175495D01*
X176450Y392563D01*
X177306Y393057D01*
X178006Y393757D01*
X178500Y394613D01*
X178756Y395568D01*
Y396034D01*
X179153Y396339D01*
X179500Y396246D01*
Y400000D01*
Y403754D01*
X178550Y403500D01*
X177694Y403006D01*
X176995Y402306D01*
X176500Y401450D01*
X176244Y400494D01*
Y400029D01*
X175847Y399724D01*
X175495Y399819D01*
X174505D01*
X174153Y399724D01*
X173756Y400029D01*
Y400494D01*
X173500Y401450D01*
X173005Y402306D01*
X172306Y403006D01*
X171450Y403500D01*
X170494Y403756D01*
D02*
G37*
G36*
X232738Y396551D02*
X232500D01*
Y391445D01*
X237606D01*
Y391683D01*
X237224Y393109D01*
X236486Y394387D01*
X235442Y395431D01*
X234164Y396169D01*
X232738Y396551D01*
D02*
G37*
G36*
X231500D02*
X231262D01*
X229836Y396169D01*
X228558Y395431D01*
X227514Y394387D01*
X226776Y393109D01*
X226394Y391683D01*
Y391445D01*
X231500D01*
Y396551D01*
D02*
G37*
G36*
X584579Y392396D02*
X584500D01*
Y388500D01*
X588396D01*
Y388579D01*
X588096Y389697D01*
X587517Y390699D01*
X586699Y391517D01*
X585697Y392096D01*
X584579Y392396D01*
D02*
G37*
G36*
X754579Y390396D02*
X753421D01*
X752303Y390096D01*
X751301Y389517D01*
X750483Y388699D01*
X750249Y388294D01*
X675473D01*
X675039Y389045D01*
X674419Y389665D01*
X673660Y390104D01*
X672813Y390331D01*
X671936D01*
X671088Y390104D01*
X670329Y389665D01*
X669709Y389045D01*
X669270Y388286D01*
X669043Y387439D01*
Y386561D01*
X669270Y385714D01*
X669709Y384955D01*
X670329Y384335D01*
X671088Y383896D01*
X671936Y383669D01*
X672813D01*
X673130Y383754D01*
X673374Y383706D01*
X750249D01*
X750483Y383301D01*
X751301Y382483D01*
X752303Y381904D01*
X753421Y381604D01*
X754579D01*
X755697Y381904D01*
X756699Y382483D01*
X757517Y383301D01*
X758096Y384303D01*
X758396Y385421D01*
Y386579D01*
X758096Y387697D01*
X757517Y388699D01*
X756699Y389517D01*
X755697Y390096D01*
X754579Y390396D01*
D02*
G37*
G36*
X237606Y390445D02*
X232500D01*
Y385338D01*
X232738D01*
X234164Y385721D01*
X235442Y386459D01*
X236486Y387502D01*
X237224Y388781D01*
X237606Y390207D01*
Y390445D01*
D02*
G37*
G36*
X231500D02*
X226394D01*
Y390207D01*
X226776Y388781D01*
X227514Y387502D01*
X228558Y386459D01*
X229836Y385721D01*
X231262Y385338D01*
X231500D01*
Y390445D01*
D02*
G37*
G36*
X588396Y387500D02*
X584500D01*
Y383604D01*
X584579D01*
X585697Y383904D01*
X586699Y384483D01*
X587517Y385301D01*
X588096Y386303D01*
X588396Y387421D01*
Y387500D01*
D02*
G37*
G36*
X583500D02*
X579604D01*
Y387421D01*
X579904Y386303D01*
X580483Y385301D01*
X581301Y384483D01*
X582303Y383904D01*
X583421Y383604D01*
X583500D01*
Y387500D01*
D02*
G37*
G36*
X846598Y383016D02*
X846500D01*
Y378972D01*
X850543D01*
Y379070D01*
X850234Y380226D01*
X849636Y381262D01*
X848790Y382108D01*
X847754Y382706D01*
X846598Y383016D01*
D02*
G37*
G36*
X845500D02*
X845402D01*
X844246Y382706D01*
X843210Y382108D01*
X842365Y381262D01*
X841766Y380226D01*
X841457Y379070D01*
Y378972D01*
X845500D01*
Y383016D01*
D02*
G37*
G36*
X612065Y400331D02*
X611188D01*
X610340Y400104D01*
X609581Y399665D01*
X608961Y399045D01*
X608522Y398286D01*
X608295Y397439D01*
Y396914D01*
X590676Y379294D01*
X204752D01*
X204530Y379250D01*
X204304D01*
X204096Y379164D01*
X203874Y379119D01*
X203686Y378994D01*
X203478Y378907D01*
X203318Y378748D01*
X203130Y378622D01*
X203004Y378434D01*
X202845Y378274D01*
X202758Y378066D01*
X202632Y377878D01*
X202589Y377656D01*
X202502Y377448D01*
Y377222D01*
X202458Y377000D01*
X202502Y376778D01*
Y376552D01*
X202589Y376344D01*
X202632Y376122D01*
X202758Y375934D01*
X202845Y375726D01*
X203004Y375566D01*
X203130Y375378D01*
X203318Y375252D01*
X203478Y375093D01*
X203686Y375006D01*
X203874Y374881D01*
X204096Y374836D01*
X204304Y374750D01*
X204530D01*
X204752Y374706D01*
X591626D01*
X592504Y374881D01*
X593248Y375378D01*
X611540Y393669D01*
X612065D01*
X612912Y393896D01*
X613671Y394335D01*
X614291Y394955D01*
X614730Y395714D01*
X614957Y396562D01*
Y397439D01*
X614730Y398286D01*
X614291Y399045D01*
X613671Y399665D01*
X612912Y400104D01*
X612065Y400331D01*
D02*
G37*
G36*
X856441Y383016D02*
X855245D01*
X854089Y382706D01*
X853053Y382108D01*
X852207Y381262D01*
X851609Y380226D01*
X851299Y379070D01*
Y377874D01*
X851609Y376719D01*
X852207Y375683D01*
X853053Y374837D01*
X854089Y374239D01*
X855245Y373929D01*
X856441D01*
X857596Y374239D01*
X858632Y374837D01*
X859478Y375683D01*
X860076Y376719D01*
X860386Y377874D01*
Y379070D01*
X860076Y380226D01*
X859478Y381262D01*
X858632Y382108D01*
X857596Y382706D01*
X856441Y383016D01*
D02*
G37*
G36*
X850543Y377972D02*
X846500D01*
Y373929D01*
X846598D01*
X847754Y374239D01*
X848790Y374837D01*
X849636Y375683D01*
X850234Y376719D01*
X850543Y377874D01*
Y377972D01*
D02*
G37*
G36*
X845500D02*
X841457D01*
Y377874D01*
X841766Y376719D01*
X842365Y375683D01*
X843210Y374837D01*
X844246Y374239D01*
X845402Y373929D01*
X845500D01*
Y377972D01*
D02*
G37*
G36*
X836755Y383016D02*
X835559D01*
X834404Y382706D01*
X833368Y382108D01*
X832522Y381262D01*
X831924Y380226D01*
X831614Y379070D01*
Y377874D01*
X831924Y376719D01*
X832522Y375683D01*
X833368Y374837D01*
X834404Y374239D01*
X835559Y373929D01*
X836755D01*
X837911Y374239D01*
X838947Y374837D01*
X839793Y375683D01*
X840391Y376719D01*
X840701Y377874D01*
Y379070D01*
X840391Y380226D01*
X839793Y381262D01*
X838947Y382108D01*
X837911Y382706D01*
X836755Y383016D01*
D02*
G37*
G36*
X106637Y382839D02*
X105363D01*
X104132Y382509D01*
X103029Y381872D01*
X102128Y380971D01*
X101491Y379868D01*
X101161Y378637D01*
Y377363D01*
X101491Y376132D01*
X102128Y375029D01*
X103029Y374128D01*
X104132Y373491D01*
X105363Y373161D01*
X106637D01*
X107868Y373491D01*
X108971Y374128D01*
X109872Y375029D01*
X110509Y376132D01*
X110839Y377363D01*
Y378637D01*
X110509Y379868D01*
X109872Y380971D01*
X108971Y381872D01*
X107868Y382509D01*
X106637Y382839D01*
D02*
G37*
G36*
X612065Y390331D02*
X611188D01*
X610340Y390104D01*
X609581Y389665D01*
X608961Y389045D01*
X608522Y388286D01*
X608295Y387439D01*
Y386561D01*
X608522Y385714D01*
X608961Y384955D01*
X609581Y384335D01*
X610340Y383896D01*
X611188Y383669D01*
X611712D01*
X621004Y374378D01*
X621748Y373881D01*
X622626Y373706D01*
X749604D01*
Y371604D01*
X758396D01*
Y380396D01*
X749604D01*
Y378294D01*
X623576D01*
X614957Y386914D01*
Y387439D01*
X614730Y388286D01*
X614291Y389045D01*
X613671Y389665D01*
X612912Y390104D01*
X612065Y390331D01*
D02*
G37*
%LPD*%
G36*
X913200Y580656D02*
X913008Y580194D01*
X896840D01*
X896428Y580469D01*
X895550Y580644D01*
X894672Y580469D01*
X893928Y579972D01*
X890750Y576794D01*
X887983D01*
Y587932D01*
X905924D01*
X913200Y580656D01*
D02*
G37*
G36*
X883395Y576794D02*
X880902D01*
X870226Y587470D01*
X870418Y587932D01*
X883395D01*
Y576794D01*
D02*
G37*
G36*
X740483Y415301D02*
X741301Y414483D01*
X742303Y413904D01*
X743421Y413604D01*
X744579D01*
X745697Y413904D01*
X746302Y414253D01*
X746609Y413853D01*
X744050Y411294D01*
X721264D01*
Y413956D01*
X723013Y415706D01*
X740249D01*
X740483Y415301D01*
D02*
G37*
D57*
X180000Y441921D02*
D03*
D58*
X150472D02*
D03*
Y541685D02*
D03*
Y521843D02*
D03*
Y502000D02*
D03*
X180000Y541685D02*
D03*
Y521843D02*
D03*
Y502000D02*
D03*
D70*
X885689Y590226D02*
X906874D01*
X864226D02*
X885689D01*
Y574500D02*
X891700D01*
X879952D02*
X885689D01*
X906874Y590226D02*
X919200Y577900D01*
X885689Y568763D02*
X891700Y562752D01*
X879952Y574500D02*
X885689Y568763D01*
X864226Y590226D02*
X879952Y574500D01*
X885689Y590226D02*
Y596000D01*
Y574500D02*
Y590226D01*
Y568763D02*
Y574500D01*
Y562752D02*
Y568763D01*
X973500Y439500D02*
X974000Y439000D01*
X238900Y479528D02*
X294157D01*
X171000Y574000D02*
X202630D01*
X540400Y459200D02*
X543452Y462252D01*
X536200Y455000D02*
X540400Y459200D01*
X589019Y501581D02*
X616300D01*
X579919D02*
X589019D01*
X843900Y430000D02*
X848900Y425000D01*
X960000D01*
X974000Y439000D01*
X973500Y523600D02*
X974000Y439000D01*
X232000Y479528D02*
X238900D01*
X973500Y439500D02*
Y523600D01*
X919200Y577900D02*
X973500Y523600D01*
X896000Y577900D02*
X919200D01*
X891700Y574500D02*
X895550Y578350D01*
X150472Y521843D02*
X202630Y574000D01*
X230000D01*
X112000Y572000D02*
X169000D01*
X171000Y574000D01*
X217700Y435700D02*
X232000Y450000D01*
X173813Y435700D02*
X217700D01*
X173813D02*
Y515655D01*
X180000Y521843D01*
X572800Y465752D02*
X579800Y458752D01*
X441622Y465752D02*
X572800D01*
X570000Y478400D02*
Y493900D01*
Y478400D02*
X575000Y473400D01*
X586500D01*
X597900Y462000D01*
X854000Y488000D02*
X871000Y505000D01*
X862000Y480000D02*
X868100D01*
X854000Y488000D02*
X862000Y480000D01*
X375000Y438000D02*
X493248D01*
X370000Y443000D02*
X375000Y438000D01*
X370000Y443000D02*
Y470374D01*
X374626Y475000D01*
X552452Y461000D02*
X564100D01*
X551200Y462252D02*
X552452Y461000D01*
X543452Y462252D02*
X551200D01*
X405374Y455000D02*
X536200D01*
X539000Y460600D02*
X540400Y459200D01*
X486000Y388000D02*
X540000Y442000D01*
X593078D01*
X596248Y445170D01*
Y451622D01*
X611626Y467000D01*
X496000Y388000D02*
X546000Y438000D01*
X596425D01*
X604141Y445716D01*
Y449515D01*
X611626Y457000D01*
X473400Y429400D02*
X518900D01*
X448000Y404000D02*
X473400Y429400D01*
X545100Y445500D02*
X557100Y457500D01*
X531452Y445500D02*
X545100D01*
X524752Y438800D02*
X531452Y445500D01*
X397000Y601937D02*
X404763Y609700D01*
X480800D01*
X541600Y548900D01*
X548100D01*
X556248Y540752D01*
X392900Y588900D02*
X402000Y598000D01*
X392900Y568000D02*
Y588900D01*
Y568000D02*
X398900Y562000D01*
X519500D01*
X579919Y501581D01*
X616300D02*
X646281Y471600D01*
X717800D01*
X589248Y453152D02*
Y458752D01*
X578248Y469752D02*
X589248Y458752D01*
X379378Y469752D02*
X578248D01*
X374626Y465000D02*
X379378Y469752D01*
X584600Y468548D02*
Y469800D01*
Y468548D02*
X592748Y460400D01*
Y449652D02*
Y460400D01*
X585948Y449652D02*
X592748D01*
X580700Y454900D02*
X585948Y449652D01*
X537570Y449770D02*
X546552Y458752D01*
X410144Y449770D02*
X537570D01*
X405374Y445000D02*
X410144Y449770D01*
X598626Y434000D02*
X611626Y447000D01*
X552000Y434000D02*
X598626D01*
X506000Y388000D02*
X552000Y434000D01*
X599300Y479200D02*
X606100Y472400D01*
X614380D01*
X616980Y475000D01*
X611626Y487000D02*
X616980Y481646D01*
X379506Y554100D02*
X386000Y547606D01*
X369400Y554100D02*
X379506D01*
X366500Y551200D02*
X369400Y554100D01*
X366500Y440000D02*
Y551200D01*
Y440000D02*
X372000Y434500D01*
X397500D01*
X428000Y404000D01*
X374626Y455000D02*
X379226Y459600D01*
X426000D01*
X431900Y465500D01*
X180000Y441921D02*
X194394D01*
X232000Y479528D01*
X294157D02*
X329685Y444000D01*
X391385Y382300D01*
X548300D01*
X554000Y388000D01*
X329685Y444000D02*
Y519785D01*
X371200Y561300D01*
X393750D01*
X408450Y546600D01*
X423400D01*
X430000Y540000D01*
X434900Y544900D01*
X510974D01*
X515874Y540000D01*
X698500Y593500D02*
X704000Y588000D01*
X698500Y593500D02*
Y605300D01*
X710000Y616800D01*
X750252D01*
X763146Y603906D01*
Y499146D02*
Y603906D01*
X754000Y490000D02*
X763146Y499146D01*
X722063Y418000D02*
X744000D01*
X718000Y413937D02*
X722063Y418000D01*
X386000Y547606D02*
X393606Y540000D01*
X422126D01*
X428126Y534000D01*
X463110D01*
X469110Y540000D01*
X508000D01*
X407000Y601937D02*
X411263Y606200D01*
X475800D01*
X482000Y600000D01*
X611626Y527000D02*
X635000D01*
X665000Y497000D01*
X672374D01*
X681083D01*
X694083Y510000D01*
X754000D01*
X844000Y508000D02*
X861000Y525000D01*
X888685D01*
X230000Y603528D02*
X250728Y582800D01*
X260200D01*
X275900Y567100D01*
X180000Y521843D02*
X207370D01*
X230000Y544472D01*
X150472Y502000D02*
X170313Y482160D01*
Y424987D02*
Y482160D01*
Y424987D02*
X174828Y420472D01*
X232000D01*
X575000Y479200D02*
X599300D01*
X616980Y475000D02*
Y481646D01*
X398074Y452300D02*
X405374Y445000D01*
X393500Y452300D02*
X398074D01*
X656700Y582100D02*
Y591700D01*
X685600Y620600D01*
X756100D01*
X766700Y610000D01*
Y440700D02*
Y610000D01*
X754000Y428000D02*
X766700Y440700D01*
X672374Y467000D02*
X679374Y460000D01*
X718000D01*
X855843Y435559D02*
X859500Y439216D01*
Y472500D01*
X854000Y478000D02*
X859500Y472500D01*
X372900Y511100D02*
Y550600D01*
Y511100D02*
X386000Y498000D01*
X590626D01*
X611626Y477000D01*
X888685Y515000D02*
X903285Y529600D01*
X940400D01*
X952000Y518000D01*
X888685Y505000D02*
X901500D01*
X906500Y500000D01*
X944000D01*
X952000Y508000D01*
X888685Y495000D02*
X893285Y490400D01*
X944400D01*
X952000Y498000D01*
X888685Y485000D02*
X893285Y480400D01*
X944400D01*
X952000Y488000D01*
X888685Y475000D02*
X893685Y470000D01*
X944000D01*
X952000Y478000D01*
X888685Y465000D02*
X893685Y460000D01*
X944000D01*
X952000Y468000D01*
X888685Y455000D02*
X893485Y450200D01*
X944200D01*
X952000Y458000D01*
X888685Y445000D02*
X904485Y429200D01*
X933200D01*
X952000Y448000D01*
X611626Y567000D02*
X667500Y511126D01*
Y504919D02*
Y511126D01*
Y504919D02*
X670000Y502419D01*
X674419D01*
X689300Y517300D01*
X757100D01*
X759646Y514754D01*
Y505646D02*
Y514754D01*
X754000Y500000D02*
X759646Y505646D01*
X726132Y500000D02*
X754000D01*
X724132Y502000D02*
X726132Y500000D01*
X611626Y517000D02*
X635400D01*
X659981Y492419D01*
X734781D01*
X742900Y484300D01*
X750400D01*
X759700Y475000D01*
Y463700D02*
Y475000D01*
X754000Y458000D02*
X759700Y463700D01*
X611626Y507000D02*
X618446D01*
X643046Y482400D01*
X739600D01*
X754000Y468000D01*
X516000Y388000D02*
X558500Y430500D01*
X605126D01*
X611626Y437000D01*
X526000Y388000D02*
X565000Y427000D01*
X611626D01*
X204752Y377000D02*
X591626D01*
X611626Y397000D01*
Y387000D02*
X622626Y376000D01*
X754000D01*
X672374Y387000D02*
X673374Y386000D01*
X754000D01*
X672374Y397000D02*
X673374Y396000D01*
X754000D01*
X574000Y388000D02*
X597581Y411581D01*
X667793D01*
X672374Y407000D01*
X564000Y388000D02*
X597600Y421600D01*
X667774D01*
X672374Y417000D01*
Y447000D02*
X710374Y409000D01*
X745000D01*
X754000Y418000D01*
X672374Y457000D02*
X701374Y428000D01*
X744000D01*
X672374Y477000D02*
X734600D01*
X735700Y475900D01*
Y456300D02*
Y475900D01*
Y456300D02*
X754000Y438000D01*
X672374Y507000D02*
X699374Y534000D01*
X754000D01*
X672374Y517000D02*
X699374Y544000D01*
X754000D01*
X672374Y537000D02*
X688674Y553300D01*
X726500D01*
X752100Y578900D01*
Y600500D01*
X749100Y603500D02*
X752100Y600500D01*
X709500Y603500D02*
X749100D01*
X704000Y598000D02*
X709500Y603500D01*
X664293Y555081D02*
X672374Y547000D01*
X664293Y555081D02*
Y585670D01*
X695921D01*
X699089Y582502D01*
X708502D01*
X714000Y588000D01*
X672374Y557000D02*
X677874Y562500D01*
X728700D01*
X667793Y571581D02*
X672374Y567000D01*
X667793Y571581D02*
Y582170D01*
X693000D01*
X696168Y579002D01*
X725002D01*
X734000Y588000D01*
X672374Y577000D02*
X680990D01*
X682488Y575502D01*
X731502D01*
X744000Y588000D01*
X828899Y462899D02*
X844000Y478000D01*
X828899Y453101D02*
Y462899D01*
Y453101D02*
X852700Y429300D01*
X858500D01*
X873637Y444437D01*
Y490000D01*
X883637Y500000D01*
X895600D01*
X900600Y495000D01*
X919315D01*
X840000Y468000D02*
X844000D01*
X832400Y460400D02*
X840000Y468000D01*
X106000Y398000D02*
Y497213D01*
X150472Y541685D01*
X512000Y590000D02*
X525000Y577000D01*
X567000D01*
X576000Y586000D01*
X385063Y590000D02*
X397000Y601937D01*
X350000Y590000D02*
X385063D01*
X346000Y594000D02*
X350000Y590000D01*
X545400Y545200D02*
X545448Y545248D01*
X545400Y545200D02*
X589019Y501581D01*
X398000Y572000D02*
X414000Y588000D01*
X452000D01*
Y598000D02*
X460000Y590000D01*
X482000D01*
D72*
X844000Y508000D02*
D03*
X854000D02*
D03*
X844000Y498000D02*
D03*
X854000D02*
D03*
X844000Y488000D02*
D03*
X854000D02*
D03*
X844000Y478000D02*
D03*
X854000D02*
D03*
X844000Y468000D02*
D03*
X744000Y598000D02*
D03*
Y588000D02*
D03*
X734000Y598000D02*
D03*
Y588000D02*
D03*
X724000Y598000D02*
D03*
Y588000D02*
D03*
X714000Y598000D02*
D03*
Y588000D02*
D03*
X704000Y598000D02*
D03*
X290315Y444000D02*
D03*
D73*
X854000Y468000D02*
D03*
D74*
X408000Y572000D02*
D03*
X403000Y568063D02*
D03*
X398000Y572000D02*
D03*
X397000Y601937D02*
D03*
X402000Y598000D02*
D03*
X407000Y601937D02*
D03*
X170000Y400000D02*
D03*
X175000Y396063D02*
D03*
X180000Y400000D02*
D03*
D75*
X823953Y408000D02*
D03*
X868047D02*
D03*
D76*
X855843Y435559D02*
D03*
X836157D02*
D03*
X846000Y378472D02*
D03*
X855843D02*
D03*
X836157D02*
D03*
D77*
X106000Y378000D02*
D03*
X448000Y404000D02*
D03*
X556000Y586000D02*
D03*
X112000Y572000D02*
D03*
D78*
X106000Y398000D02*
D03*
X112000Y592000D02*
D03*
D79*
X888685Y525000D02*
D03*
D80*
Y515000D02*
D03*
Y505000D02*
D03*
Y495000D02*
D03*
Y485000D02*
D03*
Y475000D02*
D03*
Y465000D02*
D03*
Y455000D02*
D03*
Y445000D02*
D03*
Y435000D02*
D03*
X919315D02*
D03*
Y445000D02*
D03*
Y455000D02*
D03*
Y465000D02*
D03*
Y475000D02*
D03*
Y485000D02*
D03*
Y495000D02*
D03*
Y505000D02*
D03*
Y515000D02*
D03*
Y525000D02*
D03*
D81*
X992000Y518000D02*
D03*
Y508000D02*
D03*
Y498000D02*
D03*
Y488000D02*
D03*
Y478000D02*
D03*
Y468000D02*
D03*
Y458000D02*
D03*
Y448000D02*
D03*
X952000D02*
D03*
Y458000D02*
D03*
Y468000D02*
D03*
Y478000D02*
D03*
Y488000D02*
D03*
Y498000D02*
D03*
Y508000D02*
D03*
D82*
Y518000D02*
D03*
D83*
X704000Y588000D02*
D03*
D84*
X754000Y418000D02*
D03*
Y534000D02*
D03*
Y490000D02*
D03*
Y458000D02*
D03*
Y376000D02*
D03*
D85*
X744000Y418000D02*
D03*
X754000Y428000D02*
D03*
X744000D02*
D03*
X754000Y438000D02*
D03*
X744000D02*
D03*
X754000Y554000D02*
D03*
Y544000D02*
D03*
X526000Y388000D02*
D03*
X516000D02*
D03*
X506000D02*
D03*
X496000D02*
D03*
X754000Y510000D02*
D03*
Y500000D02*
D03*
X584000Y388000D02*
D03*
X574000D02*
D03*
X564000D02*
D03*
X754000Y468000D02*
D03*
Y396000D02*
D03*
Y386000D02*
D03*
D86*
X486000Y388000D02*
D03*
X554000D02*
D03*
D87*
X672374Y577000D02*
D03*
Y567000D02*
D03*
Y557000D02*
D03*
Y547000D02*
D03*
Y537000D02*
D03*
Y527000D02*
D03*
Y517000D02*
D03*
Y507000D02*
D03*
Y497000D02*
D03*
Y487000D02*
D03*
Y477000D02*
D03*
Y467000D02*
D03*
Y457000D02*
D03*
Y447000D02*
D03*
Y437000D02*
D03*
Y427000D02*
D03*
Y417000D02*
D03*
Y407000D02*
D03*
Y397000D02*
D03*
Y387000D02*
D03*
X611626D02*
D03*
Y397000D02*
D03*
Y407000D02*
D03*
Y417000D02*
D03*
Y427000D02*
D03*
Y437000D02*
D03*
Y447000D02*
D03*
Y457000D02*
D03*
Y467000D02*
D03*
Y477000D02*
D03*
Y487000D02*
D03*
Y497000D02*
D03*
Y507000D02*
D03*
Y517000D02*
D03*
Y527000D02*
D03*
Y537000D02*
D03*
Y547000D02*
D03*
Y557000D02*
D03*
Y567000D02*
D03*
D88*
Y577000D02*
D03*
D89*
X718000Y460000D02*
D03*
D90*
Y413937D02*
D03*
D91*
X476890Y534000D02*
D03*
X515937Y510000D02*
D03*
X430000Y540000D02*
D03*
X515874D02*
D03*
D92*
X463110Y534000D02*
D03*
X508063Y510000D02*
D03*
X422126Y540000D02*
D03*
X508000D02*
D03*
D93*
X428000Y404000D02*
D03*
X576000Y586000D02*
D03*
D94*
X329685Y444000D02*
D03*
D95*
X405374Y475000D02*
D03*
Y465000D02*
D03*
Y455000D02*
D03*
Y445000D02*
D03*
X374626D02*
D03*
Y455000D02*
D03*
Y465000D02*
D03*
D96*
Y475000D02*
D03*
D97*
X351000Y597346D02*
D03*
X346000Y594000D02*
D03*
X341000Y597346D02*
D03*
D98*
X452000Y578000D02*
D03*
D99*
Y588000D02*
D03*
Y598000D02*
D03*
D100*
X482000Y590000D02*
D03*
Y600000D02*
D03*
X512000D02*
D03*
Y590000D02*
D03*
D101*
X386000Y547606D02*
D03*
D102*
Y498000D02*
D03*
D103*
X232000Y479528D02*
D03*
X230000Y603528D02*
D03*
D104*
X232000Y450000D02*
D03*
Y420472D02*
D03*
Y390945D02*
D03*
X230000Y574000D02*
D03*
Y544472D02*
D03*
Y514945D02*
D03*
D105*
X843900Y430000D02*
D03*
X864226Y590226D02*
D03*
X891700Y562752D02*
D03*
X885689D02*
D03*
Y596000D02*
D03*
X579800Y458752D02*
D03*
X441622Y465752D02*
D03*
X570000Y493900D02*
D03*
X597900Y462000D02*
D03*
X871000Y505000D02*
D03*
X868100Y480000D02*
D03*
X493248Y438000D02*
D03*
X564100Y461000D02*
D03*
X539000Y460600D02*
D03*
X518900Y429400D02*
D03*
X557100Y457500D02*
D03*
X524752Y438800D02*
D03*
X556248Y540752D02*
D03*
X717800Y471600D02*
D03*
X584600Y469800D02*
D03*
X580700Y454900D02*
D03*
X546552Y458752D02*
D03*
X575000Y479200D02*
D03*
X431900Y465500D02*
D03*
X275900Y567100D02*
D03*
X393500Y452300D02*
D03*
X656700Y582100D02*
D03*
X372900Y550600D02*
D03*
X724132Y502000D02*
D03*
X204752Y377000D02*
D03*
X728700Y562500D02*
D03*
X832400Y460400D02*
D03*
D106*
X788000Y928000D02*
D03*
X780000Y352000D02*
D03*
X828000Y622000D02*
D03*
Y352000D02*
D03*
X992000Y620000D02*
D03*
Y354000D02*
D03*
D107*
X74000Y618000D02*
D03*
Y350000D02*
D03*
M02*
